<svg xmlns="http://www.w3.org/2000/svg" xmlns:xlink="http://www.w3.org/1999/xlink" width="220" zoomAndPan="magnify" viewBox="0 0 165 74.999997" height="100" preserveAspectRatio="xMidYMid meet" version="1.0"><defs><g/><clipPath id="00a99e93fc"><path d="M 8.820312 25.59375 L 45.734375 25.59375 L 45.734375 68.273438 L 8.820312 68.273438 Z M 8.820312 25.59375 " clip-rule="nonzero"/></clipPath><clipPath id="ba2e3e2b76"><path d="M 27.277344 25.59375 L 45.734375 36.238281 L 45.734375 57.53125 L 27.277344 68.179688 L 8.820312 57.53125 L 8.820312 36.238281 Z M 27.277344 25.59375 " clip-rule="nonzero"/></clipPath><clipPath id="93c81c9b08"><path d="M 27.277344 22.273438 L 44.445312 22.273438 L 44.445312 41.332031 L 27.277344 41.332031 Z M 27.277344 22.273438 " clip-rule="nonzero"/></clipPath><clipPath id="3e00940a7c"><path d="M 10.160156 52.644531 L 27.328125 52.644531 L 27.328125 71.703125 L 10.160156 71.703125 Z M 10.160156 52.644531 " clip-rule="nonzero"/></clipPath><clipPath id="1a0fc5739c"><path d="M 10.109375 22.25 L 27.277344 22.25 L 27.277344 41.308594 L 10.109375 41.308594 Z M 10.109375 22.25 " clip-rule="nonzero"/></clipPath><clipPath id="02153340c9"><path d="M 27.277344 52.644531 L 44.445312 52.644531 L 44.445312 71.703125 L 27.277344 71.703125 Z M 27.277344 52.644531 " clip-rule="nonzero"/></clipPath><clipPath id="a298546407"><path d="M 0 37.992188 L 7.71875 37.992188 L 7.71875 55.789062 L 0 55.789062 Z M 0 37.992188 " clip-rule="nonzero"/></clipPath><clipPath id="db74629e13"><path d="M 47.683594 38.933594 L 54.503906 38.933594 L 54.503906 54.839844 L 47.683594 54.839844 Z M 47.683594 38.933594 " clip-rule="nonzero"/></clipPath><clipPath id="5d91197edd"><path d="M 7.371094 24.050781 L 47.535156 24.050781 L 47.535156 69.71875 L 7.371094 69.71875 Z M 7.371094 24.050781 " clip-rule="nonzero"/></clipPath><clipPath id="f0df01af7a"><path d="M 121 46 L 140 46 L 140 68 L 121 68 Z M 121 46 " clip-rule="nonzero"/></clipPath><clipPath id="742a9c9647"><path d="M 123.296875 39.425781 L 146.894531 48.613281 L 137.003906 74.011719 L 113.40625 64.820312 Z M 123.296875 39.425781 " clip-rule="nonzero"/></clipPath><clipPath id="9e0eeceecc"><path d="M 123.296875 39.425781 L 146.894531 48.613281 L 137.003906 74.011719 L 113.40625 64.820312 Z M 123.296875 39.425781 " clip-rule="nonzero"/></clipPath><clipPath id="90b505d778"><path d="M 123.296875 39.425781 L 146.894531 48.613281 L 137.003906 74.011719 L 113.40625 64.820312 Z M 123.296875 39.425781 " clip-rule="nonzero"/></clipPath></defs><rect x="-16.5" width="198" fill="#ffffff" y="-7.5" height="89.999996" fill-opacity="1"/><rect x="-16.5" width="198" fill="#ffffff" y="-7.5" height="89.999996" fill-opacity="1"/><g clip-path="url(#00a99e93fc)"><g clip-path="url(#ba2e3e2b76)"><path fill="#2064b3" d="M 8.820312 25.59375 L 45.734375 25.59375 L 45.734375 68.128906 L 8.820312 68.128906 Z M 8.820312 25.59375 " fill-opacity="1" fill-rule="nonzero"/></g></g><g clip-path="url(#93c81c9b08)"><path fill="#ffffff" d="M 28.738281 34.070312 L 26.933594 34.070312 C 26.71875 33.375 26.089844 32.867188 25.320312 32.867188 C 24.382812 32.867188 23.636719 33.613281 23.636719 34.554688 C 23.636719 35.492188 24.382812 36.238281 25.320312 36.238281 C 26.089844 36.238281 26.71875 35.734375 26.933594 35.035156 L 28.933594 35.035156 C 29.050781 35.035156 29.171875 34.988281 29.269531 34.890625 L 32.160156 32 C 32.253906 31.90625 32.304688 31.785156 32.304688 31.664062 L 32.304688 23.238281 L 33.265625 23.238281 L 33.265625 32.195312 L 29.800781 35.660156 C 29.703125 35.757812 29.65625 35.878906 29.65625 36 L 29.65625 38.238281 C 28.957031 38.453125 28.449219 39.078125 28.449219 39.851562 C 28.449219 40.789062 29.195312 41.535156 30.136719 41.535156 C 31.074219 41.535156 31.820312 40.789062 31.820312 39.851562 C 31.820312 39.078125 31.316406 38.453125 30.617188 38.238281 L 30.617188 36.191406 L 30.980469 35.828125 L 34.6875 39.5625 L 34.6875 41.148438 C 34.664062 41.175781 34.636719 41.199219 34.613281 41.222656 L 31.628906 44.183594 L 30.304688 44.183594 C 30.085938 43.484375 29.460938 42.980469 28.691406 42.980469 C 27.753906 42.980469 27.007812 43.726562 27.007812 44.664062 C 27.007812 45.605469 27.753906 46.351562 28.691406 46.351562 C 29.460938 46.351562 30.085938 45.84375 30.304688 45.148438 L 31.820312 45.148438 C 31.941406 45.148438 32.0625 45.097656 32.160156 45.003906 L 34.6875 42.472656 L 34.6875 44.738281 C 33.988281 44.953125 33.507812 45.582031 33.507812 46.351562 C 33.507812 47.289062 34.253906 48.035156 35.191406 48.035156 C 36.132812 48.035156 36.878906 47.289062 36.878906 46.351562 C 36.878906 45.582031 36.371094 44.929688 35.648438 44.738281 L 35.648438 39.367188 C 35.648438 39.25 35.601562 39.128906 35.503906 39.03125 L 31.652344 35.179688 L 34.085938 32.722656 C 34.179688 32.628906 34.230469 32.507812 34.230469 32.386719 L 34.230469 23.238281 L 35.433594 23.238281 L 35.433594 35.972656 C 35.433594 36.09375 35.480469 36.214844 35.578125 36.3125 L 37.597656 38.359375 L 37.597656 41.921875 C 37.574219 41.992188 37.574219 42.066406 37.597656 42.113281 L 37.597656 49.792969 C 36.902344 49.984375 36.394531 50.636719 36.394531 51.40625 C 36.394531 52.34375 37.140625 53.09375 38.082031 53.09375 C 39.019531 53.09375 39.765625 52.34375 39.765625 51.40625 C 39.765625 50.660156 39.261719 50.011719 38.5625 49.792969 L 38.5625 43.195312 L 40.851562 45.484375 C 40.96875 45.582031 41.089844 45.628906 41.210938 45.628906 L 42.726562 45.628906 C 42.945312 46.328125 43.570312 46.832031 44.339844 46.832031 C 45.28125 46.832031 46.027344 46.085938 46.027344 45.148438 C 46.027344 44.207031 45.28125 43.460938 44.339844 43.460938 C 43.570312 43.460938 42.945312 43.96875 42.726562 44.664062 L 41.402344 44.664062 L 38.5625 41.824219 L 38.5625 38.164062 C 38.5625 38.042969 38.515625 37.925781 38.417969 37.828125 L 36.371094 35.78125 L 36.371094 23.238281 L 37.574219 23.238281 L 37.574219 32.386719 C 37.574219 32.507812 37.625 32.628906 37.71875 32.722656 L 41.210938 36.191406 L 41.210938 38.238281 C 40.511719 38.453125 40.007812 39.078125 40.007812 39.851562 C 40.007812 40.789062 40.753906 41.535156 41.691406 41.535156 C 42.632812 41.535156 43.378906 40.789062 43.378906 39.851562 C 43.378906 39.078125 42.871094 38.453125 42.175781 38.238281 L 42.175781 36 C 42.175781 35.878906 42.125 35.757812 42.03125 35.660156 L 38.5625 32.195312 L 38.5625 23.238281 L 39.527344 23.238281 L 39.527344 31.664062 C 39.527344 31.785156 39.574219 31.90625 39.671875 32 L 42.558594 34.890625 C 42.65625 34.988281 42.777344 35.035156 42.894531 35.035156 L 44.894531 35.035156 C 45.109375 35.734375 45.738281 36.238281 46.507812 36.238281 C 47.445312 36.238281 48.191406 35.492188 48.191406 34.554688 C 48.191406 33.613281 47.445312 32.867188 46.507812 32.867188 C 45.738281 32.867188 45.109375 33.375 44.894531 34.070312 L 43.089844 34.070312 L 40.488281 31.472656 L 40.488281 23.238281 L 45.304688 23.238281 C 45.570312 23.238281 45.785156 23.019531 45.785156 22.757812 C 45.785156 22.492188 45.570312 22.273438 45.304688 22.273438 L 26.523438 22.273438 C 26.261719 22.273438 26.042969 22.492188 26.042969 22.757812 C 26.042969 23.019531 26.261719 23.238281 26.523438 23.238281 L 31.339844 23.238281 L 31.339844 31.472656 Z M 28.738281 34.070312 " fill-opacity="1" fill-rule="nonzero"/></g><g clip-path="url(#3e00940a7c)"><path fill="#ffffff" d="M 25.816406 59.878906 L 27.621094 59.878906 C 27.835938 60.578125 28.464844 61.082031 29.234375 61.082031 C 30.171875 61.082031 30.917969 60.335938 30.917969 59.398438 C 30.917969 58.460938 30.171875 57.710938 29.234375 57.710938 C 28.464844 57.710938 27.835938 58.21875 27.621094 58.917969 L 25.621094 58.917969 C 25.5 58.917969 25.382812 58.964844 25.285156 59.0625 L 22.394531 61.949219 C 22.300781 62.046875 22.25 62.167969 22.25 62.289062 L 22.25 70.714844 L 21.289062 70.714844 L 21.289062 61.757812 L 24.753906 58.289062 C 24.851562 58.195312 24.898438 58.074219 24.898438 57.953125 L 24.898438 55.714844 C 25.597656 55.496094 26.105469 54.871094 26.105469 54.101562 C 26.105469 53.164062 25.355469 52.417969 24.417969 52.417969 C 23.480469 52.417969 22.734375 53.164062 22.734375 54.101562 C 22.734375 54.871094 23.238281 55.496094 23.9375 55.714844 L 23.9375 57.761719 L 23.574219 58.121094 L 19.867188 54.390625 L 19.867188 52.800781 C 19.890625 52.777344 19.917969 52.753906 19.941406 52.730469 L 22.925781 49.769531 L 24.25 49.769531 C 24.464844 50.464844 25.09375 50.972656 25.863281 50.972656 C 26.800781 50.972656 27.546875 50.226562 27.546875 49.285156 C 27.546875 48.347656 26.800781 47.601562 25.863281 47.601562 C 25.09375 47.601562 24.464844 48.105469 24.25 48.804688 L 22.734375 48.804688 C 22.613281 48.804688 22.492188 48.851562 22.394531 48.949219 L 19.867188 51.476562 L 19.867188 49.214844 C 20.566406 48.996094 21.046875 48.371094 21.046875 47.601562 C 21.046875 46.660156 20.300781 45.914062 19.363281 45.914062 C 18.421875 45.914062 17.675781 46.660156 17.675781 47.601562 C 17.675781 48.371094 18.183594 49.019531 18.90625 49.214844 L 18.90625 54.582031 C 18.90625 54.703125 18.953125 54.824219 19.050781 54.921875 L 22.902344 58.773438 L 20.46875 61.226562 C 20.375 61.324219 20.324219 61.445312 20.324219 61.566406 L 20.324219 70.714844 L 19.121094 70.714844 L 19.121094 57.976562 C 19.121094 57.855469 19.074219 57.738281 18.976562 57.640625 L 16.953125 55.59375 L 16.953125 52.03125 C 16.980469 51.957031 16.980469 51.886719 16.953125 51.839844 L 16.953125 44.15625 C 17.652344 43.964844 18.160156 43.316406 18.160156 42.546875 C 18.160156 41.605469 17.414062 40.859375 16.472656 40.859375 C 15.535156 40.859375 14.789062 41.605469 14.789062 42.546875 C 14.789062 43.292969 15.292969 43.941406 15.992188 44.15625 L 15.992188 50.753906 L 13.703125 48.46875 C 13.585938 48.371094 13.464844 48.324219 13.34375 48.324219 L 11.828125 48.324219 C 11.609375 47.625 10.984375 47.121094 10.214844 47.121094 C 9.273438 47.121094 8.527344 47.867188 8.527344 48.804688 C 8.527344 49.742188 9.273438 50.488281 10.214844 50.488281 C 10.984375 50.488281 11.609375 49.984375 11.828125 49.285156 L 13.152344 49.285156 L 15.992188 52.128906 L 15.992188 55.785156 C 15.992188 55.90625 16.039062 56.027344 16.136719 56.125 L 18.183594 58.171875 L 18.183594 70.714844 L 16.980469 70.714844 L 16.980469 61.566406 C 16.980469 61.445312 16.929688 61.324219 16.835938 61.226562 L 13.34375 57.761719 L 13.34375 55.714844 C 14.042969 55.496094 14.546875 54.871094 14.546875 54.101562 C 14.546875 53.164062 13.800781 52.417969 12.863281 52.417969 C 11.921875 52.417969 11.175781 53.164062 11.175781 54.101562 C 11.175781 54.871094 11.683594 55.496094 12.378906 55.714844 L 12.378906 57.953125 C 12.378906 58.074219 12.429688 58.195312 12.523438 58.289062 L 15.992188 61.757812 L 15.992188 70.714844 L 15.027344 70.714844 L 15.027344 62.289062 C 15.027344 62.167969 14.980469 62.046875 14.882812 61.949219 L 11.996094 59.0625 C 11.898438 58.964844 11.777344 58.917969 11.65625 58.917969 L 9.660156 58.917969 C 9.441406 58.21875 8.816406 57.710938 8.046875 57.710938 C 7.109375 57.710938 6.363281 58.460938 6.363281 59.398438 C 6.363281 60.335938 7.109375 61.082031 8.046875 61.082031 C 8.816406 61.082031 9.441406 60.578125 9.660156 59.878906 L 11.464844 59.878906 L 14.066406 62.480469 L 14.066406 70.714844 L 9.25 70.714844 C 8.984375 70.714844 8.769531 70.929688 8.769531 71.195312 C 8.769531 71.460938 8.984375 71.675781 9.25 71.675781 L 28.03125 71.675781 C 28.292969 71.675781 28.511719 71.460938 28.511719 71.195312 C 28.511719 70.929688 28.292969 70.714844 28.03125 70.714844 L 23.214844 70.714844 L 23.214844 62.480469 Z M 25.816406 59.878906 " fill-opacity="1" fill-rule="nonzero"/></g><g clip-path="url(#1a0fc5739c)"><path fill="#ffffff" d="M 11.621094 34.070312 L 9.816406 34.070312 C 9.597656 33.375 8.972656 32.867188 8.203125 32.867188 C 7.261719 32.867188 6.515625 33.613281 6.515625 34.554688 C 6.515625 35.492188 7.261719 36.238281 8.203125 36.238281 C 8.972656 36.238281 9.597656 35.734375 9.816406 35.035156 L 11.8125 35.035156 C 11.933594 35.035156 12.054688 34.988281 12.152344 34.890625 L 15.039062 32 C 15.136719 31.90625 15.183594 31.785156 15.183594 31.664062 L 15.183594 23.238281 L 16.148438 23.238281 L 16.148438 32.195312 L 12.679688 35.660156 C 12.582031 35.757812 12.535156 35.878906 12.535156 36 L 12.535156 38.238281 C 11.835938 38.453125 11.332031 39.078125 11.332031 39.851562 C 11.332031 40.789062 12.078125 41.535156 13.015625 41.535156 C 13.957031 41.535156 14.703125 40.789062 14.703125 39.851562 C 14.703125 39.078125 14.195312 38.453125 13.5 38.238281 L 13.5 36.191406 L 13.859375 35.828125 L 17.566406 39.5625 L 17.566406 41.148438 C 17.542969 41.175781 17.519531 41.199219 17.496094 41.222656 L 14.511719 44.183594 L 13.1875 44.183594 C 12.96875 43.484375 12.34375 42.980469 11.574219 42.980469 C 10.632812 42.980469 9.886719 43.726562 9.886719 44.664062 C 9.886719 45.605469 10.632812 46.351562 11.574219 46.351562 C 12.34375 46.351562 12.96875 45.84375 13.1875 45.148438 L 14.703125 45.148438 C 14.824219 45.148438 14.941406 45.097656 15.039062 45.003906 L 17.566406 42.472656 L 17.566406 44.738281 C 16.871094 44.953125 16.386719 45.582031 16.386719 46.351562 C 16.386719 47.289062 17.132812 48.035156 18.074219 48.035156 C 19.011719 48.035156 19.757812 47.289062 19.757812 46.351562 C 19.757812 45.582031 19.253906 44.929688 18.53125 44.738281 L 18.53125 39.367188 C 18.53125 39.25 18.480469 39.128906 18.386719 39.03125 L 14.535156 35.179688 L 16.964844 32.722656 C 17.0625 32.628906 17.109375 32.507812 17.109375 32.386719 L 17.109375 23.238281 L 18.3125 23.238281 L 18.3125 35.972656 C 18.3125 36.09375 18.363281 36.214844 18.457031 36.3125 L 20.480469 38.359375 L 20.480469 41.921875 C 20.457031 41.992188 20.457031 42.066406 20.480469 42.113281 L 20.480469 49.792969 C 19.78125 49.984375 19.277344 50.636719 19.277344 51.40625 C 19.277344 52.34375 20.023438 53.09375 20.960938 53.09375 C 21.902344 53.09375 22.648438 52.34375 22.648438 51.40625 C 22.648438 50.660156 22.140625 50.011719 21.445312 49.792969 L 21.445312 43.195312 L 23.730469 45.484375 C 23.851562 45.582031 23.972656 45.628906 24.09375 45.628906 L 25.609375 45.628906 C 25.824219 46.328125 26.453125 46.832031 27.222656 46.832031 C 28.160156 46.832031 28.90625 46.085938 28.90625 45.148438 C 28.90625 44.207031 28.160156 43.460938 27.222656 43.460938 C 26.453125 43.460938 25.824219 43.96875 25.609375 44.664062 L 24.285156 44.664062 L 21.445312 41.824219 L 21.445312 38.164062 C 21.445312 38.042969 21.394531 37.925781 21.300781 37.828125 L 19.253906 35.78125 L 19.253906 23.238281 L 20.457031 23.238281 L 20.457031 32.386719 C 20.457031 32.507812 20.503906 32.628906 20.601562 32.722656 L 24.09375 36.191406 L 24.09375 38.238281 C 23.394531 38.453125 22.886719 39.078125 22.886719 39.851562 C 22.886719 40.789062 23.632812 41.535156 24.574219 41.535156 C 25.511719 41.535156 26.257812 40.789062 26.257812 39.851562 C 26.257812 39.078125 25.753906 38.453125 25.054688 38.238281 L 25.054688 36 C 25.054688 35.878906 25.007812 35.757812 24.910156 35.660156 L 21.445312 32.195312 L 21.445312 23.238281 L 22.40625 23.238281 L 22.40625 31.664062 C 22.40625 31.785156 22.453125 31.90625 22.550781 32 L 25.441406 34.890625 C 25.535156 34.988281 25.65625 35.035156 25.777344 35.035156 L 27.777344 35.035156 C 27.992188 35.734375 28.617188 36.238281 29.390625 36.238281 C 30.328125 36.238281 31.074219 35.492188 31.074219 34.554688 C 31.074219 33.613281 30.328125 32.867188 29.390625 32.867188 C 28.617188 32.867188 27.992188 33.375 27.777344 34.070312 L 25.96875 34.070312 L 23.371094 31.472656 L 23.371094 23.238281 L 28.183594 23.238281 C 28.449219 23.238281 28.667969 23.019531 28.667969 22.757812 C 28.667969 22.492188 28.449219 22.273438 28.183594 22.273438 L 9.40625 22.273438 C 9.140625 22.273438 8.925781 22.492188 8.925781 22.757812 C 8.925781 23.019531 9.140625 23.238281 9.40625 23.238281 L 14.222656 23.238281 L 14.222656 31.472656 Z M 11.621094 34.070312 " fill-opacity="1" fill-rule="nonzero"/></g><g clip-path="url(#02153340c9)"><path fill="#ffffff" d="M 28.738281 59.878906 L 26.933594 59.878906 C 26.71875 60.578125 26.089844 61.082031 25.320312 61.082031 C 24.382812 61.082031 23.636719 60.335938 23.636719 59.398438 C 23.636719 58.460938 24.382812 57.710938 25.320312 57.710938 C 26.089844 57.710938 26.71875 58.21875 26.933594 58.917969 L 28.933594 58.917969 C 29.050781 58.917969 29.171875 58.964844 29.269531 59.0625 L 32.160156 61.949219 C 32.253906 62.046875 32.304688 62.167969 32.304688 62.289062 L 32.304688 70.714844 L 33.265625 70.714844 L 33.265625 61.757812 L 29.800781 58.289062 C 29.703125 58.195312 29.65625 58.074219 29.65625 57.953125 L 29.65625 55.714844 C 28.957031 55.496094 28.449219 54.871094 28.449219 54.101562 C 28.449219 53.164062 29.195312 52.417969 30.136719 52.417969 C 31.074219 52.417969 31.820312 53.164062 31.820312 54.101562 C 31.820312 54.871094 31.316406 55.496094 30.617188 55.714844 L 30.617188 57.761719 L 30.980469 58.121094 L 34.6875 54.390625 L 34.6875 52.800781 C 34.664062 52.777344 34.636719 52.753906 34.613281 52.730469 L 31.628906 49.769531 L 30.304688 49.769531 C 30.085938 50.464844 29.460938 50.972656 28.691406 50.972656 C 27.753906 50.972656 27.007812 50.226562 27.007812 49.285156 C 27.007812 48.347656 27.753906 47.601562 28.691406 47.601562 C 29.460938 47.601562 30.085938 48.105469 30.304688 48.804688 L 31.820312 48.804688 C 31.941406 48.804688 32.0625 48.851562 32.160156 48.949219 L 34.6875 51.476562 L 34.6875 49.214844 C 33.988281 48.996094 33.507812 48.371094 33.507812 47.601562 C 33.507812 46.660156 34.253906 45.914062 35.191406 45.914062 C 36.132812 45.914062 36.878906 46.660156 36.878906 47.601562 C 36.878906 48.371094 36.371094 49.019531 35.648438 49.214844 L 35.648438 54.582031 C 35.648438 54.703125 35.601562 54.824219 35.503906 54.921875 L 31.652344 58.773438 L 34.085938 61.226562 C 34.179688 61.324219 34.230469 61.445312 34.230469 61.566406 L 34.230469 70.714844 L 35.433594 70.714844 L 35.433594 57.976562 C 35.433594 57.855469 35.480469 57.738281 35.578125 57.640625 L 37.597656 55.59375 L 37.597656 52.03125 C 37.574219 51.957031 37.574219 51.886719 37.597656 51.839844 L 37.597656 44.15625 C 36.902344 43.964844 36.394531 43.316406 36.394531 42.546875 C 36.394531 41.605469 37.140625 40.859375 38.082031 40.859375 C 39.019531 40.859375 39.765625 41.605469 39.765625 42.546875 C 39.765625 43.292969 39.261719 43.941406 38.5625 44.15625 L 38.5625 50.753906 L 40.851562 48.46875 C 40.96875 48.371094 41.089844 48.324219 41.210938 48.324219 L 42.726562 48.324219 C 42.945312 47.625 43.570312 47.121094 44.339844 47.121094 C 45.28125 47.121094 46.027344 47.867188 46.027344 48.804688 C 46.027344 49.742188 45.28125 50.488281 44.339844 50.488281 C 43.570312 50.488281 42.945312 49.984375 42.726562 49.285156 L 41.402344 49.285156 L 38.5625 52.128906 L 38.5625 55.785156 C 38.5625 55.90625 38.515625 56.027344 38.417969 56.125 L 36.371094 58.171875 L 36.371094 70.714844 L 37.574219 70.714844 L 37.574219 61.566406 C 37.574219 61.445312 37.625 61.324219 37.71875 61.226562 L 41.210938 57.761719 L 41.210938 55.714844 C 40.511719 55.496094 40.007812 54.871094 40.007812 54.101562 C 40.007812 53.164062 40.753906 52.417969 41.691406 52.417969 C 42.632812 52.417969 43.378906 53.164062 43.378906 54.101562 C 43.378906 54.871094 42.871094 55.496094 42.175781 55.714844 L 42.175781 57.953125 C 42.175781 58.074219 42.125 58.195312 42.03125 58.289062 L 38.5625 61.757812 L 38.5625 70.714844 L 39.527344 70.714844 L 39.527344 62.289062 C 39.527344 62.167969 39.574219 62.046875 39.671875 61.949219 L 42.558594 59.0625 C 42.65625 58.964844 42.777344 58.917969 42.894531 58.917969 L 44.894531 58.917969 C 45.109375 58.21875 45.738281 57.710938 46.507812 57.710938 C 47.445312 57.710938 48.191406 58.460938 48.191406 59.398438 C 48.191406 60.335938 47.445312 61.082031 46.507812 61.082031 C 45.738281 61.082031 45.109375 60.578125 44.894531 59.878906 L 43.089844 59.878906 L 40.488281 62.480469 L 40.488281 70.714844 L 45.304688 70.714844 C 45.570312 70.714844 45.785156 70.929688 45.785156 71.195312 C 45.785156 71.460938 45.570312 71.675781 45.304688 71.675781 L 26.523438 71.675781 C 26.261719 71.675781 26.042969 71.460938 26.042969 71.195312 C 26.042969 70.929688 26.261719 70.714844 26.523438 70.714844 L 31.339844 70.714844 L 31.339844 62.480469 Z M 28.738281 59.878906 " fill-opacity="1" fill-rule="nonzero"/></g><g fill="#ffffff" fill-opacity="1"><g transform="translate(11.843665, 50.164258)"><g><path d="M 2.828125 0.0625 C 2.390625 0.0625 2 -0.015625 1.65625 -0.171875 C 1.3125 -0.328125 1.039062 -0.539062 0.84375 -0.8125 C 0.644531 -1.09375 0.546875 -1.410156 0.546875 -1.765625 L 1.46875 -1.765625 C 1.5 -1.453125 1.625 -1.191406 1.84375 -0.984375 C 2.070312 -0.773438 2.398438 -0.671875 2.828125 -0.671875 C 3.242188 -0.671875 3.570312 -0.769531 3.8125 -0.96875 C 4.050781 -1.175781 4.171875 -1.441406 4.171875 -1.765625 C 4.171875 -2.023438 4.097656 -2.234375 3.953125 -2.390625 C 3.816406 -2.546875 3.644531 -2.664062 3.4375 -2.75 C 3.226562 -2.832031 2.945312 -2.921875 2.59375 -3.015625 C 2.15625 -3.128906 1.800781 -3.242188 1.53125 -3.359375 C 1.269531 -3.472656 1.046875 -3.648438 0.859375 -3.890625 C 0.671875 -4.140625 0.578125 -4.46875 0.578125 -4.875 C 0.578125 -5.238281 0.664062 -5.5625 0.84375 -5.84375 C 1.03125 -6.125 1.289062 -6.335938 1.625 -6.484375 C 1.957031 -6.640625 2.34375 -6.71875 2.78125 -6.71875 C 3.40625 -6.71875 3.914062 -6.5625 4.3125 -6.25 C 4.707031 -5.9375 4.929688 -5.523438 4.984375 -5.015625 L 4.03125 -5.015625 C 4 -5.265625 3.863281 -5.484375 3.625 -5.671875 C 3.382812 -5.867188 3.070312 -5.96875 2.6875 -5.96875 C 2.332031 -5.96875 2.039062 -5.875 1.8125 -5.6875 C 1.582031 -5.507812 1.46875 -5.25 1.46875 -4.90625 C 1.46875 -4.664062 1.535156 -4.46875 1.671875 -4.3125 C 1.804688 -4.164062 1.972656 -4.050781 2.171875 -3.96875 C 2.367188 -3.894531 2.648438 -3.804688 3.015625 -3.703125 C 3.453125 -3.578125 3.800781 -3.457031 4.0625 -3.34375 C 4.332031 -3.226562 4.5625 -3.046875 4.75 -2.796875 C 4.945312 -2.554688 5.046875 -2.226562 5.046875 -1.8125 C 5.046875 -1.488281 4.957031 -1.179688 4.78125 -0.890625 C 4.613281 -0.609375 4.359375 -0.378906 4.015625 -0.203125 C 3.679688 -0.0234375 3.285156 0.0625 2.828125 0.0625 Z M 2.828125 0.0625 "/></g></g></g><g fill="#ffffff" fill-opacity="1"><g transform="translate(17.430271, 50.164258)"><g><path d="M 1.1875 -6.0625 C 1.019531 -6.0625 0.878906 -6.117188 0.765625 -6.234375 C 0.648438 -6.347656 0.59375 -6.488281 0.59375 -6.65625 C 0.59375 -6.820312 0.648438 -6.957031 0.765625 -7.0625 C 0.878906 -7.175781 1.019531 -7.234375 1.1875 -7.234375 C 1.34375 -7.234375 1.472656 -7.175781 1.578125 -7.0625 C 1.691406 -6.957031 1.75 -6.820312 1.75 -6.65625 C 1.75 -6.488281 1.691406 -6.347656 1.578125 -6.234375 C 1.472656 -6.117188 1.34375 -6.0625 1.1875 -6.0625 Z M 1.59375 -5.21875 L 1.59375 0 L 0.734375 0 L 0.734375 -5.21875 Z M 1.59375 -5.21875 "/></g></g></g><g fill="#ffffff" fill-opacity="1"><g transform="translate(19.771506, 50.164258)"><g><path d="M 4.34375 -3.859375 L 4.34375 -3.125 L 0.546875 -3.125 L 0.546875 -3.859375 Z M 4.34375 -3.859375 "/></g></g></g><g fill="#ffffff" fill-opacity="1"><g transform="translate(25.015493, 50.164258)"><g><path d="M 4.484375 -6.625 L 4.484375 -5.921875 L 1.59375 -5.921875 L 1.59375 -3.6875 L 3.9375 -3.6875 L 3.9375 -2.984375 L 1.59375 -2.984375 L 1.59375 0 L 0.734375 0 L 0.734375 -6.625 Z M 4.484375 -6.625 "/></g></g></g><g fill="#ffffff" fill-opacity="1"><g transform="translate(29.81217, 50.164258)"><g><path d="M 4.21875 0 L 2.640625 -2.71875 L 1.59375 -2.71875 L 1.59375 0 L 0.734375 0 L 0.734375 -6.625 L 2.875 -6.625 C 3.375 -6.625 3.796875 -6.539062 4.140625 -6.375 C 4.484375 -6.207031 4.738281 -5.976562 4.90625 -5.6875 C 5.082031 -5.394531 5.171875 -5.0625 5.171875 -4.6875 C 5.171875 -4.226562 5.039062 -3.820312 4.78125 -3.46875 C 4.519531 -3.125 4.125 -2.894531 3.59375 -2.78125 L 5.265625 0 Z M 1.59375 -3.40625 L 2.875 -3.40625 C 3.34375 -3.40625 3.691406 -3.519531 3.921875 -3.75 C 4.160156 -3.976562 4.28125 -4.289062 4.28125 -4.6875 C 4.28125 -5.070312 4.164062 -5.375 3.9375 -5.59375 C 3.707031 -5.8125 3.351562 -5.921875 2.875 -5.921875 L 1.59375 -5.921875 Z M 1.59375 -3.40625 "/></g></g></g><g fill="#ffffff" fill-opacity="1"><g transform="translate(35.59864, 50.164258)"><g><path d="M 1.1875 -6.0625 C 1.019531 -6.0625 0.878906 -6.117188 0.765625 -6.234375 C 0.648438 -6.347656 0.59375 -6.488281 0.59375 -6.65625 C 0.59375 -6.820312 0.648438 -6.957031 0.765625 -7.0625 C 0.878906 -7.175781 1.019531 -7.234375 1.1875 -7.234375 C 1.34375 -7.234375 1.472656 -7.175781 1.578125 -7.0625 C 1.691406 -6.957031 1.75 -6.820312 1.75 -6.65625 C 1.75 -6.488281 1.691406 -6.347656 1.578125 -6.234375 C 1.472656 -6.117188 1.34375 -6.0625 1.1875 -6.0625 Z M 1.59375 -5.21875 L 1.59375 0 L 0.734375 0 L 0.734375 -5.21875 Z M 1.59375 -5.21875 "/></g></g></g><g fill="#ffffff" fill-opacity="1"><g transform="translate(37.939875, 50.164258)"><g><path d="M 4.8125 -6.625 L 4.8125 -5.921875 L 3 -5.921875 L 3 0 L 2.140625 0 L 2.140625 -5.921875 L 0.328125 -5.921875 L 0.328125 -6.625 Z M 4.8125 -6.625 "/></g></g></g><g clip-path="url(#a298546407)"><path fill="#2064b3" d="M 29.429688 43.027344 C 29.855469 43.546875 30.488281 43.847656 31.183594 43.847656 C 32.441406 43.847656 33.46875 42.824219 33.46875 41.558594 C 33.46875 40.296875 32.441406 39.269531 31.183594 39.269531 C 30.5 39.269531 29.851562 39.582031 29.421875 40.097656 L 25.628906 40.097656 L 25.628906 39.25 C 25.628906 38.542969 25.054688 37.96875 24.347656 37.96875 L 9.132812 37.96875 C 8.425781 37.96875 7.851562 38.542969 7.851562 39.25 L 7.851562 40.097656 L 4.058594 40.097656 C 3.628906 39.582031 2.980469 39.269531 2.296875 39.269531 C 1.039062 39.269531 0.015625 40.296875 0.015625 41.558594 C 0.015625 42.824219 1.039062 43.847656 2.296875 43.847656 C 2.992188 43.847656 3.628906 43.546875 4.050781 43.027344 L 7.851562 43.027344 L 7.851562 45.394531 L 4.058594 45.394531 C 3.628906 44.878906 2.980469 44.566406 2.296875 44.566406 C 1.039062 44.566406 0.0117188 45.59375 0.0117188 46.855469 C 0.0117188 48.121094 1.039062 49.148438 2.296875 49.148438 C 2.992188 49.148438 3.625 48.84375 4.050781 48.324219 L 7.851562 48.324219 L 7.851562 50.691406 L 4.058594 50.691406 C 3.628906 50.175781 2.980469 49.867188 2.296875 49.867188 C 1.039062 49.867188 0.0117188 50.890625 0.0117188 52.15625 C 0.0117188 53.417969 1.039062 54.445312 2.296875 54.445312 C 2.992188 54.445312 3.625 54.140625 4.050781 53.625 L 7.851562 53.625 L 7.851562 54.464844 C 7.851562 55.171875 8.425781 55.746094 9.132812 55.746094 L 24.347656 55.746094 C 25.054688 55.746094 25.628906 55.171875 25.628906 54.464844 L 25.628906 53.625 L 29.425781 53.625 C 29.855469 54.140625 30.488281 54.445312 31.183594 54.445312 C 32.441406 54.445312 33.464844 53.417969 33.464844 52.15625 C 33.464844 50.890625 32.441406 49.867188 31.183594 49.867188 C 30.5 49.867188 29.851562 50.175781 29.421875 50.691406 L 25.628906 50.691406 L 25.628906 48.324219 L 29.425781 48.324219 C 29.855469 48.84375 30.488281 49.148438 31.183594 49.148438 C 32.441406 49.148438 33.464844 48.121094 33.464844 46.855469 C 33.464844 45.59375 32.441406 44.566406 31.183594 44.566406 C 30.5 44.566406 29.851562 44.878906 29.421875 45.394531 L 25.628906 45.394531 L 25.628906 43.027344 Z M 29.710938 41.210938 C 29.90625 41.210938 30.085938 41.109375 30.1875 40.941406 C 30.394531 40.597656 30.777344 40.386719 31.183594 40.386719 C 31.828125 40.386719 32.351562 40.914062 32.351562 41.558594 C 32.351562 42.207031 31.828125 42.734375 31.183594 42.734375 C 30.769531 42.734375 30.402344 42.527344 30.195312 42.183594 C 30.09375 42.015625 29.910156 41.914062 29.714844 41.914062 L 25.628906 41.914062 L 25.628906 41.210938 Z M 3.765625 41.914062 C 3.570312 41.914062 3.390625 42.015625 3.289062 42.183594 C 3.078125 42.527344 2.710938 42.734375 2.296875 42.734375 C 1.652344 42.734375 1.128906 42.207031 1.128906 41.558594 C 1.128906 40.914062 1.652344 40.386719 2.296875 40.386719 C 2.707031 40.386719 3.085938 40.597656 3.292969 40.941406 C 3.394531 41.109375 3.578125 41.210938 3.773438 41.210938 L 7.851562 41.210938 L 7.851562 41.914062 Z M 3.765625 47.210938 C 3.570312 47.210938 3.390625 47.3125 3.289062 47.480469 C 3.078125 47.824219 2.710938 48.03125 2.296875 48.03125 C 1.652344 48.03125 1.128906 47.503906 1.128906 46.855469 C 1.128906 46.210938 1.652344 45.683594 2.296875 45.683594 C 2.707031 45.683594 3.085938 45.894531 3.292969 46.238281 C 3.394531 46.40625 3.578125 46.507812 3.773438 46.507812 L 7.851562 46.507812 L 7.851562 47.210938 Z M 3.765625 52.507812 C 3.570312 52.507812 3.390625 52.609375 3.289062 52.777344 C 3.082031 53.121094 2.710938 53.328125 2.296875 53.328125 C 1.652344 53.328125 1.128906 52.800781 1.128906 52.152344 C 1.128906 51.507812 1.652344 50.980469 2.296875 50.980469 C 2.707031 50.980469 3.085938 51.195312 3.292969 51.535156 C 3.394531 51.703125 3.578125 51.808594 3.773438 51.808594 L 7.851562 51.808594 L 7.851562 52.507812 Z M 24.347656 54.628906 L 9.136719 54.628906 C 9.042969 54.628906 8.96875 54.554688 8.96875 54.464844 L 8.96875 39.25 C 8.96875 39.15625 9.042969 39.082031 9.136719 39.082031 L 24.347656 39.082031 C 24.441406 39.082031 24.515625 39.15625 24.515625 39.25 L 24.515625 40.644531 C 24.515625 40.648438 24.515625 40.652344 24.515625 40.65625 L 24.515625 42.46875 C 24.515625 42.472656 24.515625 42.476562 24.515625 42.480469 L 24.515625 45.941406 C 24.515625 45.945312 24.515625 45.949219 24.515625 45.953125 L 24.515625 47.769531 C 24.515625 47.773438 24.515625 47.773438 24.515625 47.777344 L 24.515625 51.242188 C 24.515625 51.246094 24.515625 51.246094 24.515625 51.25 L 24.515625 53.066406 C 24.515625 53.070312 24.515625 53.074219 24.515625 53.074219 L 24.515625 54.464844 C 24.515625 54.558594 24.441406 54.632812 24.347656 54.632812 Z M 29.710938 51.808594 C 29.90625 51.808594 30.085938 51.703125 30.1875 51.535156 C 30.394531 51.195312 30.777344 50.980469 31.183594 50.980469 C 31.828125 50.980469 32.351562 51.507812 32.351562 52.152344 C 32.351562 52.800781 31.828125 53.328125 31.183594 53.328125 C 30.773438 53.328125 30.402344 53.121094 30.195312 52.777344 C 30.09375 52.609375 29.914062 52.507812 29.714844 52.507812 L 25.632812 52.507812 L 25.632812 51.808594 Z M 29.710938 46.507812 C 29.90625 46.507812 30.085938 46.40625 30.1875 46.238281 C 30.394531 45.894531 30.777344 45.683594 31.183594 45.683594 C 31.828125 45.683594 32.351562 46.210938 32.351562 46.855469 C 32.351562 47.503906 31.828125 48.03125 31.183594 48.03125 C 30.773438 48.03125 30.402344 47.824219 30.195312 47.480469 C 30.09375 47.3125 29.914062 47.210938 29.714844 47.210938 L 25.632812 47.210938 L 25.632812 46.507812 Z M 29.710938 46.507812 " fill-opacity="1" fill-rule="nonzero"/></g><g clip-path="url(#db74629e13)"><path fill="#2064b3" d="M 50.71875 43.703125 C 51.121094 44.195312 51.722656 44.480469 52.378906 44.480469 C 53.574219 44.480469 54.542969 43.507812 54.542969 42.3125 C 54.542969 41.117188 53.574219 40.144531 52.378906 40.144531 C 51.730469 40.144531 51.117188 40.4375 50.714844 40.925781 L 47.121094 40.925781 L 47.121094 40.125 C 47.121094 39.457031 46.574219 38.910156 45.90625 38.910156 L 31.496094 38.910156 C 30.828125 38.910156 30.28125 39.457031 30.28125 40.125 L 30.28125 40.925781 L 26.6875 40.925781 C 26.28125 40.4375 25.667969 40.144531 25.019531 40.144531 C 23.828125 40.144531 22.859375 41.117188 22.859375 42.3125 C 22.859375 43.507812 23.828125 44.480469 25.019531 44.480469 C 25.675781 44.480469 26.28125 44.195312 26.683594 43.703125 L 30.28125 43.703125 L 30.28125 45.945312 L 26.6875 45.945312 C 26.28125 45.457031 25.667969 45.160156 25.019531 45.160156 C 23.828125 45.160156 22.855469 46.132812 22.855469 47.328125 C 22.855469 48.527344 23.828125 49.5 25.019531 49.5 C 25.675781 49.5 26.277344 49.210938 26.683594 48.71875 L 30.28125 48.71875 L 30.28125 50.960938 L 26.6875 50.960938 C 26.28125 50.472656 25.667969 50.179688 25.019531 50.179688 C 23.828125 50.179688 22.855469 51.152344 22.855469 52.347656 C 22.855469 53.542969 23.828125 54.515625 25.019531 54.515625 C 25.675781 54.515625 26.277344 54.230469 26.679688 53.738281 L 30.28125 53.738281 L 30.28125 54.535156 C 30.28125 55.203125 30.824219 55.75 31.496094 55.75 L 45.90625 55.75 C 46.574219 55.75 47.121094 55.203125 47.121094 54.535156 L 47.121094 53.738281 L 50.714844 53.738281 C 51.121094 54.230469 51.722656 54.515625 52.378906 54.515625 C 53.570312 54.515625 54.542969 53.542969 54.542969 52.347656 C 54.542969 51.152344 53.570312 50.179688 52.378906 50.179688 C 51.730469 50.179688 51.117188 50.472656 50.710938 50.960938 L 47.121094 50.960938 L 47.121094 48.71875 L 50.714844 48.71875 C 51.121094 49.210938 51.722656 49.5 52.378906 49.5 C 53.570312 49.5 54.542969 48.527344 54.542969 47.328125 C 54.542969 46.132812 53.570312 45.160156 52.378906 45.160156 C 51.730469 45.160156 51.117188 45.457031 50.710938 45.945312 L 47.121094 45.945312 L 47.121094 43.703125 Z M 50.984375 41.984375 C 51.167969 41.984375 51.339844 41.886719 51.4375 41.726562 C 51.632812 41.402344 51.992188 41.199219 52.378906 41.199219 C 52.988281 41.199219 53.488281 41.699219 53.488281 42.3125 C 53.488281 42.925781 52.988281 43.425781 52.378906 43.425781 C 51.988281 43.425781 51.636719 43.230469 51.441406 42.902344 C 51.347656 42.742188 51.175781 42.648438 50.988281 42.648438 L 47.121094 42.648438 L 47.121094 41.984375 Z M 26.410156 42.648438 C 26.226562 42.648438 26.054688 42.746094 25.957031 42.902344 C 25.761719 43.230469 25.410156 43.425781 25.019531 43.425781 C 24.410156 43.425781 23.914062 42.925781 23.914062 42.3125 C 23.914062 41.699219 24.410156 41.199219 25.019531 41.199219 C 25.40625 41.199219 25.769531 41.402344 25.964844 41.726562 C 26.058594 41.886719 26.230469 41.984375 26.417969 41.984375 L 30.28125 41.984375 L 30.28125 42.648438 Z M 26.410156 47.664062 C 26.226562 47.664062 26.054688 47.761719 25.957031 47.917969 C 25.761719 48.246094 25.410156 48.441406 25.019531 48.441406 C 24.410156 48.441406 23.914062 47.941406 23.914062 47.328125 C 23.914062 46.714844 24.410156 46.21875 25.019531 46.21875 C 25.40625 46.21875 25.769531 46.417969 25.964844 46.746094 C 26.058594 46.902344 26.230469 47 26.417969 47 L 30.28125 47 L 30.28125 47.664062 Z M 26.410156 52.679688 C 26.226562 52.679688 26.054688 52.777344 25.957031 52.9375 C 25.761719 53.265625 25.410156 53.457031 25.019531 53.457031 C 24.410156 53.457031 23.914062 52.960938 23.914062 52.347656 C 23.914062 51.734375 24.410156 51.234375 25.019531 51.234375 C 25.40625 51.234375 25.769531 51.4375 25.964844 51.761719 C 26.058594 51.921875 26.230469 52.019531 26.417969 52.019531 L 30.28125 52.019531 L 30.28125 52.679688 Z M 45.90625 54.691406 L 31.496094 54.691406 C 31.410156 54.691406 31.339844 54.621094 31.339844 54.535156 L 31.339844 40.125 C 31.339844 40.039062 31.410156 39.964844 31.496094 39.964844 L 45.90625 39.964844 C 45.992188 39.964844 46.066406 40.039062 46.066406 40.125 L 46.066406 41.445312 C 46.066406 41.449219 46.0625 41.453125 46.0625 41.457031 L 46.0625 43.175781 C 46.0625 43.179688 46.066406 43.179688 46.066406 43.183594 L 46.066406 46.464844 C 46.066406 46.46875 46.0625 46.46875 46.0625 46.472656 L 46.0625 48.191406 C 46.0625 48.195312 46.066406 48.199219 46.066406 48.203125 L 46.066406 51.480469 C 46.066406 51.484375 46.0625 51.488281 46.0625 51.492188 L 46.0625 53.210938 C 46.0625 53.214844 46.066406 53.214844 46.066406 53.21875 L 46.066406 54.535156 C 46.066406 54.621094 45.992188 54.695312 45.90625 54.695312 Z M 50.984375 52.019531 C 51.167969 52.019531 51.339844 51.921875 51.4375 51.761719 C 51.632812 51.4375 51.996094 51.234375 52.378906 51.234375 C 52.992188 51.234375 53.488281 51.734375 53.488281 52.347656 C 53.488281 52.960938 52.992188 53.457031 52.378906 53.457031 C 51.988281 53.457031 51.640625 53.265625 51.441406 52.9375 C 51.347656 52.777344 51.175781 52.679688 50.988281 52.679688 L 47.121094 52.679688 L 47.121094 52.019531 Z M 50.984375 47 C 51.167969 47 51.339844 46.902344 51.4375 46.746094 C 51.632812 46.417969 51.996094 46.21875 52.378906 46.21875 C 52.992188 46.21875 53.488281 46.714844 53.488281 47.328125 C 53.488281 47.941406 52.992188 48.441406 52.378906 48.441406 C 51.988281 48.441406 51.640625 48.246094 51.441406 47.917969 C 51.347656 47.761719 51.175781 47.664062 50.988281 47.664062 L 47.121094 47.664062 L 47.121094 47 Z M 50.984375 47 " fill-opacity="1" fill-rule="nonzero"/></g><g clip-path="url(#5d91197edd)"><path fill="#a2a5b9" d="M 27.464844 25.714844 C 27.34375 25.714844 27.222656 25.746094 27.113281 25.808594 L 9.386719 36.039062 C 9.171875 36.167969 9.035156 36.402344 9.035156 36.652344 L 9.035156 57.117188 C 9.035156 57.371094 9.171875 57.605469 9.386719 57.730469 L 27.113281 67.964844 C 27.332031 68.089844 27.601562 68.089844 27.820312 67.964844 L 45.542969 57.730469 C 45.761719 57.605469 45.898438 57.371094 45.898438 57.117188 L 45.898438 36.652344 C 45.898438 36.402344 45.761719 36.167969 45.542969 36.039062 L 27.820312 25.808594 C 27.710938 25.746094 27.589844 25.714844 27.464844 25.714844 Z M 27.464844 69.71875 C 27.054688 69.71875 26.648438 69.613281 26.28125 69.402344 L 8.558594 59.171875 C 7.824219 58.75 7.371094 57.960938 7.371094 57.117188 L 7.371094 36.652344 C 7.371094 35.808594 7.824219 35.023438 8.558594 34.601562 L 26.28125 24.367188 C 27.011719 23.945312 27.917969 23.945312 28.652344 24.367188 L 46.375 34.601562 C 47.105469 35.023438 47.558594 35.808594 47.558594 36.652344 L 47.558594 57.117188 C 47.558594 57.960938 47.105469 58.75 46.375 59.171875 L 28.652344 69.402344 C 28.285156 69.613281 27.875 69.71875 27.464844 69.71875 " fill-opacity="1" fill-rule="nonzero"/></g><g clip-path="url(#f0df01af7a)"><g clip-path="url(#742a9c9647)"><g clip-path="url(#9e0eeceecc)"><g clip-path="url(#90b505d778)"><path fill="#184b9e" d="M 126.875 66.527344 C 126.871094 66.527344 126.867188 66.53125 126.863281 66.53125 C 126.898438 66.554688 127.371094 66.769531 127.394531 66.765625 L 127.472656 66.757812 C 127.433594 66.570312 127.292969 66.296875 127.277344 66.160156 C 127.253906 65.9375 127.300781 65.144531 127.40625 65.089844 C 127.394531 64.972656 127.53125 64.679688 127.574219 64.5625 C 127.609375 64.460938 127.730469 64.113281 127.828125 64.101562 L 127.84375 64.101562 C 127.878906 64.097656 127.890625 64.109375 127.894531 64.144531 L 127.894531 64.160156 C 127.914062 64.316406 127.535156 64.722656 127.566406 65.007812 C 127.496094 65.074219 127.496094 65.269531 127.480469 65.371094 C 127.472656 65.4375 127.46875 65.648438 127.480469 65.734375 L 127.480469 65.75 C 127.546875 66.304688 127.777344 66.875 128.074219 67.117188 C 128.148438 67.179688 128.246094 67.269531 128.328125 67.320312 C 128.4375 67.386719 128.519531 67.410156 128.628906 67.464844 C 128.792969 67.550781 129.097656 67.636719 129.339844 67.609375 C 129.34375 67.617188 129.34375 67.628906 129.34375 67.636719 C 129.492188 67.632812 129.636719 67.628906 129.78125 67.625 C 130.691406 67.609375 131.171875 66.808594 131.546875 66.328125 C 131.65625 66.1875 131.71875 66.015625 131.878906 65.921875 C 132.015625 65.839844 132.179688 65.671875 132.28125 65.554688 C 132.410156 65.394531 132.480469 65.304688 132.585938 65.125 C 132.6875 64.941406 132.714844 64.761719 132.792969 64.601562 C 132.785156 64.523438 132.773438 64.476562 132.824219 64.449219 L 132.789062 64.144531 C 132.757812 63.882812 132.738281 63.914062 132.636719 63.695312 C 132.601562 63.617188 132.414062 63.332031 132.410156 63.292969 L 132.398438 63.179688 C 132.378906 63.027344 132.503906 62.679688 132.554688 62.558594 C 132.570312 62.519531 132.695312 62.351562 132.722656 62.316406 C 132.757812 62.273438 132.824219 62.058594 132.816406 62 C 132.800781 61.933594 132.789062 61.871094 132.777344 61.804688 C 132.761719 61.792969 132.75 61.777344 132.738281 61.761719 C 132.726562 61.65625 132.605469 61.496094 132.546875 61.4375 C 132.496094 61.390625 132.324219 61.238281 132.253906 61.246094 L 132.191406 61.253906 C 132.046875 60.976562 130.902344 61.070312 130.628906 60.90625 C 130.472656 60.90625 130.316406 60.90625 130.160156 60.90625 C 130.011719 60.875 130 60.613281 129.949219 60.574219 C 129.914062 60.535156 129.816406 60.554688 129.804688 60.558594 C 129.714844 60.578125 129.621094 60.597656 129.527344 60.617188 C 129.515625 60.628906 129.5 60.644531 129.488281 60.65625 C 129.394531 60.667969 128.953125 60.78125 128.957031 60.828125 C 128.972656 60.953125 129.3125 61.050781 129.425781 61.089844 C 129.507812 61.117188 129.910156 61.257812 129.964844 61.253906 C 129.980469 61.292969 130.097656 61.371094 130.117188 61.367188 C 130.175781 61.363281 130.300781 61.464844 130.351562 61.503906 C 130.417969 61.554688 130.476562 61.609375 130.542969 61.667969 C 130.597656 61.714844 130.847656 61.976562 130.855469 62.050781 C 130.890625 62.367188 130.621094 61.964844 130.527344 61.886719 C 130.46875 61.839844 130.203125 61.644531 130.191406 61.585938 C 130.140625 61.585938 129.957031 61.441406 129.878906 61.40625 C 129.765625 61.355469 129.648438 61.292969 129.539062 61.253906 C 129.464844 61.222656 129.453125 61.203125 129.367188 61.183594 C 129.320312 61.175781 129.230469 61.136719 129.191406 61.117188 C 129.121094 61.085938 128.667969 60.910156 128.578125 60.917969 L 128.546875 60.921875 C 128.496094 60.929688 128.273438 61.066406 128.265625 61.066406 C 128.136719 61.082031 128.023438 61.011719 127.882812 61.027344 L 127.820312 61.035156 C 127.621094 61.054688 127.292969 61.183594 127.148438 61.261719 C 126.753906 61.472656 126.515625 61.695312 126.144531 61.910156 C 126.023438 61.984375 125.84375 62.234375 125.765625 62.265625 C 125.796875 61.960938 126.445312 61.496094 126.65625 61.363281 C 126.730469 61.320312 126.753906 61.300781 126.8125 61.261719 C 126.941406 61.175781 127.015625 61.160156 127.152344 61.089844 C 127.203125 61.0625 127.929688 60.664062 127.71875 60.6875 C 127.714844 60.6875 127.542969 60.65625 127.488281 60.65625 C 127.398438 60.648438 127.292969 60.667969 127.199219 60.679688 C 127.023438 60.699219 126.824219 60.6875 126.640625 60.707031 C 126.535156 60.6875 125.441406 60.585938 125.292969 60.207031 C 125.386719 60.21875 125.542969 60.332031 125.628906 60.363281 C 125.882812 60.449219 126.160156 60.554688 126.433594 60.578125 C 126.492188 60.597656 126.640625 60.609375 126.707031 60.605469 L 126.953125 60.578125 C 126.996094 60.570312 126.996094 60.5625 127.027344 60.550781 C 127.011719 60.414062 126.847656 60.414062 126.753906 60.382812 C 126.652344 60.359375 126.550781 60.339844 126.449219 60.316406 C 126.453125 60.273438 126.757812 60.296875 126.8125 60.296875 C 126.859375 60.300781 127.234375 60.355469 127.289062 60.359375 C 127.371094 60.425781 127.511719 60.347656 127.609375 60.40625 C 127.703125 60.398438 128.148438 60.496094 128.210938 60.527344 C 128.367188 60.613281 128.75 60.492188 128.941406 60.503906 C 129.027344 60.507812 129.566406 60.414062 129.65625 60.386719 C 129.75 60.359375 129.9375 60.339844 130 60.3125 C 130.082031 60.273438 130.214844 60.203125 130.28125 60.179688 C 130.242188 59.902344 129.214844 59.789062 129.175781 59.714844 C 129.078125 59.726562 128.765625 59.648438 128.644531 59.632812 C 128.398438 59.597656 128.171875 59.558594 127.945312 59.542969 C 127.929688 59.535156 127.914062 59.523438 127.898438 59.515625 C 127.75 59.53125 127.664062 59.515625 127.527344 59.5 C 127.46875 59.496094 127.1875 59.460938 127.15625 59.464844 C 126.921875 59.492188 126.695312 59.421875 126.433594 59.449219 C 126.285156 59.460938 125.957031 59.488281 125.90625 59.390625 C 125.816406 59.402344 125.441406 59.324219 125.332031 59.308594 C 125.257812 59.292969 124.796875 59.269531 124.71875 59.277344 C 124.644531 59.285156 124.574219 59.289062 124.5 59.296875 C 124.324219 59.328125 124.152344 59.359375 123.976562 59.390625 L 123.984375 59.4375 C 123.992188 59.515625 124.304688 59.554688 124.332031 59.613281 C 124.539062 59.589844 124.6875 59.703125 124.84375 59.6875 L 124.90625 59.679688 C 124.964844 59.792969 125.292969 59.636719 125.324219 59.789062 C 125.152344 59.804688 124.984375 59.820312 124.8125 59.839844 C 124.796875 59.832031 124.777344 59.828125 124.761719 59.820312 C 124.59375 59.800781 124.425781 59.785156 124.257812 59.765625 C 124.039062 59.648438 123.476562 59.660156 123.433594 59.304688 C 123.429688 59.273438 123.453125 59.230469 123.449219 59.171875 C 123.527344 59.15625 123.554688 59.113281 123.585938 59.109375 L 123.738281 59.09375 C 123.804688 59.085938 123.992188 59.144531 124.058594 59.15625 C 124.152344 59.167969 124.335938 59.15625 124.453125 59.144531 L 124.5 59.140625 L 124.5 59.171875 C 124.6875 59.152344 124.933594 59.152344 125.113281 59.152344 C 125.246094 59.152344 125.28125 59.144531 125.402344 59.164062 C 125.453125 59.171875 125.664062 59.207031 125.683594 59.203125 L 125.730469 59.199219 L 125.734375 59.230469 L 125.792969 59.226562 C 125.800781 59.222656 126 59.300781 126.039062 59.3125 C 126.160156 59.347656 126.246094 59.304688 126.359375 59.324219 C 126.488281 59.34375 126.855469 59.320312 127.011719 59.300781 C 127.03125 59.3125 127.046875 59.320312 127.0625 59.332031 C 127.480469 59.285156 128.871094 59.363281 129.339844 59.617188 C 129.460938 59.605469 130.167969 59.84375 130.320312 59.886719 C 130.445312 59.925781 130.609375 60.070312 130.726562 60.136719 C 130.933594 60.257812 131.007812 60.132812 131.261719 60.105469 C 131.3125 60.0625 131.574219 59.949219 131.664062 59.886719 C 131.761719 59.824219 131.921875 59.679688 131.992188 59.589844 C 132.136719 59.398438 132.332031 59.039062 132.292969 58.710938 C 132.285156 58.636719 132.28125 58.273438 132.214844 58.28125 C 132.191406 58.074219 132.101562 58.03125 132.085938 58 C 132.046875 57.964844 132.078125 57.988281 132.035156 57.941406 C 131.992188 57.8125 131.492188 57.375 131.378906 57.300781 C 131.246094 57.21875 131.128906 57.132812 130.980469 57.0625 C 130.953125 57.050781 130.511719 56.851562 130.53125 57 L 130.535156 57.050781 C 130.546875 57.152344 130.601562 57.210938 130.605469 57.238281 C 130.609375 57.285156 130.613281 57.332031 130.621094 57.378906 C 130.585938 57.390625 130.550781 57.398438 130.511719 57.410156 C 130.488281 57.289062 130.058594 56.996094 129.945312 56.914062 C 129.863281 56.851562 129.753906 56.800781 129.6875 56.75 C 129.648438 56.722656 129.453125 56.617188 129.414062 56.605469 C 129.382812 56.597656 129.128906 56.507812 129.117188 56.492188 C 129.089844 56.460938 129.082031 56.410156 129.035156 56.363281 C 129 56.332031 128.953125 56.304688 128.910156 56.285156 C 128.828125 56.246094 128.691406 56.230469 128.566406 56.238281 C 128.351562 56.246094 128.054688 56.347656 127.804688 56.371094 C 127.789062 56.382812 127.777344 56.398438 127.761719 56.410156 C 127.703125 56.421875 127.640625 56.433594 127.578125 56.449219 C 127.445312 56.464844 127.3125 56.480469 127.175781 56.496094 C 127.097656 56.496094 127.019531 56.5 126.941406 56.5 C 126.921875 56.460938 126.753906 56.414062 126.710938 56.378906 C 126.628906 56.3125 126.578125 56.28125 126.46875 56.25 C 126.355469 56.214844 126.355469 56.179688 126.199219 56.15625 C 126.140625 56.148438 125.949219 56.128906 125.921875 56.078125 C 125.808594 56.089844 125.804688 56.058594 125.714844 56.066406 L 125.265625 56.117188 C 125.167969 56.125 125.109375 56.183594 124.960938 56.199219 C 124.839844 56.210938 124.738281 56.222656 124.625 56.253906 C 124.523438 56.28125 124.417969 56.324219 124.335938 56.34375 C 124.179688 56.386719 124.203125 56.457031 124.082031 56.472656 C 124.066406 56.515625 123.886719 56.671875 123.84375 56.722656 C 123.765625 56.816406 123.660156 56.875 123.566406 56.957031 C 123.414062 57.089844 123.167969 57.316406 123.074219 57.480469 C 123.042969 57.542969 123.023438 57.558594 122.984375 57.625 C 122.957031 57.667969 122.917969 57.753906 122.894531 57.785156 C 122.828125 57.878906 122.8125 58.042969 122.765625 58.140625 C 122.695312 58.367188 122.519531 58.730469 122.546875 58.960938 C 122.5625 59.078125 122.488281 59.1875 122.460938 59.296875 C 122.441406 59.40625 122.421875 59.519531 122.40625 59.628906 C 122.394531 59.6875 122.386719 59.75 122.378906 59.808594 C 122.382812 59.847656 122.386719 59.882812 122.390625 59.921875 C 122.394531 60.332031 122.402344 60.742188 122.40625 61.15625 L 122.375 61.160156 L 122.386719 61.253906 C 122.421875 61.5625 122.402344 62.207031 122.394531 62.523438 C 122.386719 62.742188 122.378906 62.949219 122.382812 63.15625 C 122.390625 63.339844 122.34375 63.613281 122.359375 63.773438 C 122.402344 64.125 122.460938 64.398438 122.550781 64.761719 L 122.5625 64.839844 C 122.59375 64.851562 122.738281 65.144531 122.769531 65.195312 C 122.851562 65.335938 122.925781 65.410156 123.015625 65.523438 C 123.175781 65.722656 123.410156 65.886719 123.632812 66.011719 C 123.695312 66.042969 123.933594 66.179688 123.992188 66.1875 C 124.09375 66.207031 124.101562 66.210938 124.1875 66.25 C 124.25 66.28125 124.335938 66.28125 124.402344 66.300781 C 124.574219 66.347656 125.097656 66.425781 125.3125 66.410156 C 125.324219 66.363281 125.484375 66.296875 125.527344 66.25 C 125.589844 66.179688 125.652344 66.144531 125.785156 66.128906 C 126.054688 66.101562 126.222656 66.03125 126.460938 66.007812 L 126.675781 65.984375 C 126.71875 65.980469 126.71875 65.988281 126.757812 65.992188 L 126.761719 66.054688 C 126.769531 66.101562 126.722656 66.132812 126.699219 66.160156 C 126.589844 66.183594 126.449219 66.28125 126.4375 66.382812 C 126.4375 66.375 126.441406 66.367188 126.441406 66.363281 C 126.585938 66.417969 126.730469 66.472656 126.875 66.527344 Z M 130.164062 48.578125 C 130.171875 48.660156 129.800781 50.496094 129.769531 50.570312 C 129.769531 50.652344 129.773438 50.734375 129.777344 50.8125 C 129.550781 51.011719 129.441406 51.53125 129.386719 51.886719 C 129.359375 52.066406 129.132812 53.007812 129.140625 53.078125 L 129.152344 53.1875 C 129.171875 53.363281 129.765625 53.1875 129.78125 53.332031 L 129.785156 53.378906 C 129.722656 53.402344 129.65625 53.417969 129.660156 53.484375 C 129.738281 53.488281 129.816406 53.492188 129.894531 53.496094 L 129.902344 53.578125 C 129.839844 53.589844 129.871094 53.597656 129.8125 53.605469 C 129.566406 53.632812 129.460938 53.613281 129.316406 53.773438 C 129.257812 53.839844 129.21875 53.875 129.164062 53.957031 C 129.117188 54.027344 129.101562 54.140625 129.0625 54.171875 C 129.070312 54.269531 129.015625 54.515625 129.023438 54.664062 C 129.035156 54.875 129.011719 54.960938 129.078125 55.1875 C 129.136719 55.394531 129.148438 55.476562 129.242188 55.636719 C 129.269531 55.6875 129.324219 55.773438 129.363281 55.808594 C 129.410156 55.855469 129.519531 55.878906 129.542969 55.925781 L 129.714844 55.90625 C 129.863281 55.890625 130.085938 55.691406 130.179688 55.609375 C 130.25 55.546875 130.292969 55.476562 130.351562 55.402344 C 130.554688 55.132812 130.800781 54.429688 130.769531 54.148438 C 130.765625 54.113281 130.589844 53.960938 130.550781 53.933594 C 130.480469 53.882812 130.328125 53.847656 130.316406 53.746094 C 130.332031 53.738281 130.355469 53.722656 130.359375 53.722656 C 130.527344 53.703125 130.660156 53.867188 130.71875 53.863281 C 130.933594 53.839844 131.070312 53.492188 131.148438 53.332031 C 131.210938 53.203125 131.378906 52.777344 131.375 52.609375 C 131.414062 52.351562 131.453125 52.089844 131.488281 51.832031 C 131.5 51.742188 131.511719 51.65625 131.523438 51.566406 C 131.414062 51.429688 131.058594 51.363281 130.867188 51.3125 C 130.75 51.28125 130.648438 51.242188 130.503906 51.230469 C 130.390625 51.222656 130.183594 51.214844 130.167969 51.097656 C 130.152344 50.957031 130.289062 50.96875 130.371094 50.960938 L 130.480469 50.949219 C 130.503906 50.78125 130.90625 50.804688 131.089844 50.785156 C 131.121094 50.839844 131.304688 50.867188 131.375 50.878906 C 131.5 50.890625 131.582031 50.941406 131.6875 50.929688 C 131.71875 50.925781 131.769531 50.828125 131.796875 50.804688 C 131.78125 50.640625 131.839844 50.042969 131.910156 49.980469 C 131.894531 49.871094 132.144531 49.0625 132.171875 48.890625 C 132.226562 48.589844 132.378906 48.050781 132.339844 47.707031 C 132.292969 47.308594 131.878906 46.976562 131.507812 47.019531 L 131.351562 47.035156 C 131.1875 47.054688 130.957031 47.175781 130.859375 47.253906 C 130.605469 47.449219 130.703125 47.394531 130.546875 47.632812 C 130.5 47.695312 130.359375 48 130.332031 48.082031 C 130.308594 48.160156 130.203125 48.558594 130.164062 48.578125 Z M 125.832031 47.460938 C 125.75 47.621094 125.824219 48.765625 125.863281 49.074219 C 125.902344 49.097656 125.9375 49.125 125.976562 49.152344 L 126.023438 49.144531 C 126.058594 49.140625 126.058594 49.15625 126.089844 49.167969 C 126.183594 49.164062 126.277344 49.160156 126.371094 49.15625 C 126.394531 49.382812 126.121094 49.335938 126.09375 49.609375 C 125.996094 49.628906 125.769531 49.847656 125.753906 49.9375 C 125.714844 50.132812 125.679688 50.257812 125.707031 50.511719 C 125.761719 50.972656 125.738281 51.355469 125.796875 51.816406 C 125.816406 51.980469 125.789062 52.484375 125.910156 52.714844 C 125.949219 52.789062 126.003906 52.835938 126.082031 52.828125 L 126.160156 52.816406 L 126.164062 52.867188 C 126.175781 52.945312 125.921875 53.105469 125.875 53.25 C 125.839844 53.355469 125.789062 53.679688 125.804688 53.816406 C 125.816406 53.976562 125.832031 54.136719 125.847656 54.300781 C 125.894531 54.5 125.941406 54.699219 125.992188 54.898438 C 126.070312 55 126.109375 55.078125 126.230469 55.140625 C 126.308594 55.183594 126.476562 55.234375 126.59375 55.222656 L 126.699219 55.210938 C 127.179688 55.160156 127.511719 54.207031 127.453125 53.683594 C 127.460938 53.683594 127.46875 53.679688 127.480469 53.679688 C 127.476562 53.589844 127.472656 53.496094 127.46875 53.40625 L 127.460938 53.359375 C 127.429688 53.082031 127.394531 52.945312 127.113281 52.941406 C 127.074219 52.941406 126.894531 52.976562 126.839844 52.988281 C 126.683594 53.023438 126.519531 53.101562 126.335938 53.125 C 126.3125 53.125 126.289062 53.117188 126.285156 53.097656 C 126.273438 52.984375 126.496094 52.855469 126.589844 52.824219 C 126.863281 52.722656 127.023438 52.640625 127.3125 52.609375 C 127.328125 52.636719 127.402344 52.664062 127.429688 52.664062 C 127.621094 52.640625 127.4375 52.484375 127.332031 52.496094 C 127.191406 52.507812 127.050781 52.523438 126.914062 52.539062 C 126.796875 52.566406 126.679688 52.597656 126.5625 52.628906 C 126.527344 52.636719 126.519531 52.621094 126.46875 52.621094 L 126.460938 52.558594 C 126.542969 52.523438 126.644531 52.359375 126.828125 52.339844 C 127.09375 52.308594 127.464844 52.414062 127.425781 52.09375 C 127.421875 52.054688 127.5625 51.597656 127.570312 51.472656 C 127.582031 51.265625 127.660156 50.972656 127.632812 50.769531 C 127.644531 50.753906 127.652344 50.738281 127.664062 50.71875 C 127.636719 50.484375 127.671875 50.289062 127.59375 50.054688 C 127.476562 49.707031 127.292969 49.714844 127.257812 49.648438 C 127.195312 49.648438 127.132812 49.648438 127.070312 49.648438 C 126.769531 49.644531 126.398438 49.804688 126.136719 49.832031 C 126.125 49.800781 126.117188 49.769531 126.105469 49.738281 C 126.261719 49.628906 126.339844 49.597656 126.589844 49.570312 C 126.679688 49.5625 127.140625 49.585938 127.132812 49.527344 C 127.121094 49.417969 126.644531 49.429688 126.527344 49.429688 L 126.519531 49.382812 C 126.511719 49.304688 126.777344 49.273438 126.835938 49.269531 C 126.933594 49.257812 127.042969 49.269531 127.109375 49.304688 C 127.226562 49.363281 127.21875 49.351562 127.367188 49.371094 C 127.410156 49.257812 127.519531 49.097656 127.539062 48.960938 C 127.558594 48.8125 127.617188 48.679688 127.636719 48.492188 C 127.671875 48.167969 127.699219 47.761719 127.660156 47.390625 L 127.652344 47.328125 C 127.625 47.113281 127.550781 46.808594 127.492188 46.628906 C 127.425781 46.425781 127.136719 46.273438 127.117188 46.214844 C 127.015625 46.226562 126.894531 46.109375 126.777344 46.125 L 126.402344 46.164062 C 126.347656 46.171875 126.148438 46.316406 126.109375 46.355469 C 126.054688 46.410156 125.964844 46.578125 125.933594 46.660156 C 125.878906 46.8125 125.808594 47.253906 125.832031 47.460938 Z M 135.378906 49.046875 L 135.300781 49.058594 C 135.046875 49.085938 134.753906 49.339844 134.628906 49.488281 C 134.566406 49.566406 134.304688 50.050781 134.257812 50.167969 C 134.226562 50.242188 134.121094 50.457031 134.078125 50.511719 C 134.050781 50.550781 133.949219 50.8125 133.921875 50.878906 C 133.867188 50.996094 133.671875 51.550781 133.6875 51.6875 C 133.617188 51.746094 133.425781 52.191406 133.429688 52.316406 C 133.46875 52.3125 133.804688 52.359375 133.855469 52.371094 C 133.859375 52.375 134.03125 52.433594 134.042969 52.441406 C 134.113281 52.46875 134.171875 52.53125 134.207031 52.539062 L 134.214844 52.585938 C 133.984375 52.632812 133.882812 52.507812 133.707031 52.527344 C 133.753906 52.667969 133.929688 52.703125 133.941406 52.8125 L 133.949219 52.859375 L 133.871094 52.867188 C 133.691406 52.886719 133.398438 52.675781 133.253906 52.691406 C 133.195312 52.699219 132.800781 53.503906 132.734375 53.613281 C 132.652344 53.761719 132.292969 54.457031 132.296875 54.613281 C 132.367188 54.640625 132.4375 54.664062 132.507812 54.691406 L 132.519531 54.785156 C 132.46875 54.804688 132.472656 54.824219 132.414062 54.832031 L 132.367188 54.835938 C 132.125 54.863281 132.078125 54.710938 132.109375 55.027344 C 131.859375 55.074219 131.601562 55.765625 131.507812 55.96875 C 131.433594 56.136719 131.292969 56.398438 131.320312 56.640625 L 131.328125 56.703125 C 131.355469 56.957031 131.640625 57.207031 131.882812 57.179688 C 131.921875 57.175781 131.957031 57.175781 131.992188 57.171875 C 132.078125 57.148438 132.164062 57.128906 132.25 57.105469 C 132.265625 57.046875 132.324219 57.0625 132.382812 57.011719 C 132.429688 56.96875 132.460938 56.941406 132.503906 56.894531 C 132.546875 56.84375 132.714844 56.6875 132.714844 56.632812 C 132.804688 56.613281 132.953125 56.421875 133.015625 56.355469 C 133.019531 56.351562 133.113281 56.214844 133.128906 56.191406 C 133.15625 56.148438 133.179688 56.03125 133.171875 55.964844 L 133.164062 55.902344 C 133.15625 55.828125 133.109375 55.816406 133.097656 55.714844 C 133 55.699219 132.996094 55.550781 132.917969 55.507812 C 132.90625 55.4375 132.890625 55.367188 132.875 55.300781 C 132.820312 55.234375 132.601562 55.089844 132.59375 55.023438 C 132.589844 54.984375 132.597656 54.972656 132.636719 54.96875 L 132.726562 54.957031 C 132.902344 54.9375 133.019531 55.113281 133.160156 55.152344 C 133.339844 55.199219 133.496094 55.410156 133.5625 55.402344 C 133.65625 55.394531 133.84375 55.152344 133.90625 55.089844 C 134.015625 54.976562 134.066406 54.828125 134.148438 54.683594 C 134.222656 54.554688 134.507812 53.914062 134.488281 53.757812 C 134.484375 53.71875 134.246094 53.5 134.21875 53.300781 C 134.402344 53.296875 134.484375 53.582031 134.5625 53.574219 C 134.59375 53.570312 134.621094 53.535156 134.617188 53.515625 C 134.59375 53.296875 134.304688 53.179688 134.25 53.039062 C 134.269531 53.023438 134.265625 53.019531 134.292969 53.015625 C 134.355469 53.011719 134.65625 53.175781 134.679688 53.21875 L 134.726562 53.214844 C 134.757812 53.210938 134.792969 53.253906 134.917969 53.242188 C 134.921875 53.210938 134.984375 53.144531 135.011719 53.085938 C 135.046875 53.011719 135.074219 52.984375 135.0625 52.882812 C 135.125 52.761719 135.117188 52.589844 135.164062 52.484375 C 135.183594 52.4375 135.210938 52.339844 135.230469 52.308594 C 135.265625 52.238281 135.253906 52.179688 135.285156 52.109375 C 135.367188 51.929688 135.4375 51.511719 135.558594 51.375 C 135.644531 51.28125 135.726562 51.347656 135.847656 51.136719 C 135.898438 51.039062 135.960938 50.894531 136.007812 50.789062 C 136.058594 50.660156 136.105469 50.554688 136.144531 50.425781 C 136.175781 50.328125 136.210938 50.074219 136.238281 50.011719 C 136.238281 49.921875 136.242188 49.835938 136.242188 49.75 L 136.242188 49.734375 C 136.21875 49.542969 136.125 49.328125 136.023438 49.242188 C 135.925781 49.15625 135.761719 49.007812 135.597656 49.023438 L 135.550781 49.03125 L 135.546875 48.996094 L 135.375 49.015625 Z M 136.964844 61.707031 C 136.898438 61.714844 136.542969 62.011719 136.503906 62.066406 C 136.492188 62.082031 136.464844 62.144531 136.429688 62.191406 C 136.398438 62.234375 136.367188 62.261719 136.332031 62.300781 C 136.03125 62.59375 136.203125 62.277344 136 62.300781 C 135.902344 62.3125 135.816406 62.496094 135.773438 62.578125 C 135.738281 62.640625 135.550781 62.785156 135.460938 62.796875 C 135.449219 62.6875 135.484375 62.746094 135.476562 62.683594 L 135.472656 62.648438 C 135.46875 62.617188 135.4375 62.589844 135.421875 62.589844 C 135.207031 62.613281 135.132812 63.09375 135.023438 63.078125 C 134.796875 63.070312 134.570312 63.058594 134.34375 63.046875 C 134.34375 63.054688 134.34375 63.058594 134.34375 63.066406 C 134.332031 63.0625 134.320312 63.058594 134.308594 63.054688 C 134.050781 63.113281 133.792969 63.175781 133.53125 63.234375 C 133.367188 63.382812 133.089844 63.761719 133.125 64.058594 C 133.078125 64.148438 133.082031 64.25 133.097656 64.386719 C 133.113281 64.511719 133.167969 64.585938 133.183594 64.71875 C 133.28125 64.773438 133.207031 64.820312 133.296875 64.851562 C 133.339844 64.863281 133.441406 64.90625 133.472656 64.902344 C 133.535156 64.890625 133.59375 64.875 133.65625 64.863281 C 133.839844 64.703125 134.066406 64.589844 134.347656 64.503906 C 134.480469 64.464844 134.648438 64.421875 134.765625 64.386719 C 134.851562 64.363281 135.136719 64.261719 135.171875 64.257812 C 135.203125 64.253906 135.261719 64.265625 135.269531 64.230469 C 135.515625 64.101562 135.457031 64.101562 135.574219 63.867188 C 135.621094 63.773438 135.609375 63.667969 135.699219 63.648438 C 135.710938 63.683594 135.71875 63.683594 135.722656 63.726562 C 135.722656 63.734375 135.722656 63.738281 135.722656 63.742188 C 135.722656 63.953125 135.71875 64.164062 135.71875 64.378906 C 135.71875 64.429688 135.734375 64.433594 135.746094 64.484375 C 135.761719 64.488281 135.78125 64.496094 135.796875 64.5 C 135.894531 64.460938 136.007812 64.386719 136.15625 64.378906 C 136.496094 64.359375 136.832031 64.335938 137.171875 64.316406 C 137.359375 64.296875 137.5 64.3125 137.714844 64.289062 C 137.921875 64.265625 138.175781 64.109375 138.371094 64.089844 C 138.382812 64.078125 138.398438 64.0625 138.410156 64.050781 C 138.621094 64.027344 139.042969 63.707031 139.160156 63.582031 C 139.339844 63.390625 139.511719 63.101562 139.46875 62.734375 C 139.414062 62.246094 139.148438 61.941406 138.832031 61.792969 C 138.632812 61.699219 138.558594 61.628906 138.304688 61.59375 C 138.109375 61.5625 137.925781 61.488281 137.667969 61.515625 C 137.59375 61.523438 137.519531 61.53125 137.449219 61.535156 C 137.289062 61.59375 137.128906 61.648438 136.964844 61.707031 Z M 121.460938 49.742188 L 121.496094 50.046875 C 121.53125 50.355469 121.761719 50.375 122.003906 50.347656 C 122.105469 50.335938 122.304688 50.253906 122.320312 50.378906 C 122.277344 50.457031 122.308594 50.433594 122.183594 50.480469 C 122.078125 50.519531 121.992188 50.542969 121.886719 50.554688 C 121.851562 50.558594 121.703125 50.484375 121.714844 50.574219 C 121.726562 50.671875 121.769531 50.828125 121.867188 50.816406 C 121.929688 50.8125 122.035156 50.667969 122.085938 50.664062 C 122.140625 50.65625 122.148438 50.671875 122.15625 50.722656 C 122.164062 50.789062 122.085938 50.808594 122.035156 50.839844 C 121.816406 50.996094 121.90625 51.488281 121.894531 51.742188 L 121.917969 51.949219 C 121.953125 52.234375 122.089844 52.632812 122.214844 52.796875 C 122.355469 52.976562 122.523438 53.3125 122.808594 53.28125 C 122.964844 53.265625 123.078125 53.171875 123.140625 53.164062 C 123.460938 53.128906 123.175781 53.371094 123.054688 53.382812 C 122.957031 53.394531 122.789062 53.523438 122.800781 53.640625 C 122.816406 53.773438 123.109375 54.84375 123.152344 54.917969 C 123.175781 54.960938 123.246094 55.144531 123.265625 55.195312 C 123.304688 55.320312 123.335938 55.371094 123.390625 55.472656 C 123.441406 55.558594 123.476562 55.617188 123.578125 55.65625 C 123.671875 55.691406 123.746094 55.730469 123.871094 55.714844 L 123.933594 55.707031 C 124.035156 55.699219 124.277344 55.460938 124.308594 55.378906 C 124.359375 55.222656 124.402344 55 124.378906 54.785156 C 124.347656 54.53125 124.347656 54.3125 124.300781 54.09375 C 124.273438 53.972656 124.265625 53.890625 124.226562 53.777344 C 124.152344 53.546875 124.074219 53.355469 124 53.117188 L 123.96875 53.121094 C 123.949219 52.957031 123.851562 52.886719 123.792969 52.796875 C 123.695312 52.660156 123.773438 52.527344 123.757812 52.398438 C 123.742188 52.257812 123.660156 51.921875 123.621094 51.785156 C 123.554688 51.582031 123.492188 51.441406 123.414062 51.257812 C 123.34375 51.09375 123.253906 50.941406 123.171875 50.78125 C 123.128906 50.695312 123.089844 50.625 123.050781 50.554688 C 122.992188 50.453125 123.011719 50.375 122.972656 50.25 C 122.914062 50.050781 122.90625 49.773438 122.871094 49.585938 C 122.828125 49.355469 122.792969 49.144531 122.753906 48.949219 C 122.683594 48.59375 122.363281 48.292969 121.992188 48.335938 C 121.453125 48.394531 121.398438 49.167969 121.460938 49.742188 Z M 130.101562 60.539062 L 130.105469 60.558594 C 130.113281 60.621094 130.132812 60.558594 130.148438 60.664062 C 130.226562 60.679688 130.257812 60.765625 130.402344 60.796875 C 130.511719 60.820312 130.644531 60.78125 130.773438 60.777344 C 131.03125 60.769531 131.164062 60.894531 131.425781 60.867188 L 131.859375 60.820312 C 131.9375 60.8125 131.972656 60.785156 132.003906 60.734375 C 132.015625 60.71875 132.054688 60.585938 132.050781 60.570312 L 132.042969 60.507812 C 132.039062 60.453125 132.011719 60.484375 132.003906 60.429688 L 132 60.382812 C 131.933594 60.375 131.921875 60.34375 131.882812 60.347656 C 131.773438 60.359375 131.683594 60.433594 131.660156 60.4375 L 131.535156 60.449219 C 131.359375 60.46875 131.21875 60.355469 131.089844 60.382812 L 130.871094 60.421875 L 130.816406 60.480469 C 130.710938 60.492188 130.703125 60.523438 130.636719 60.53125 C 130.566406 60.539062 130.351562 60.496094 130.328125 60.453125 L 130.15625 60.46875 C 130.121094 60.472656 130.097656 60.503906 130.101562 60.539062 Z M 129.226562 59.042969 L 129.230469 59.089844 L 129.371094 59.09375 L 129.433594 59.085938 C 129.695312 59.058594 129.730469 58.816406 129.875 58.796875 L 129.871094 58.941406 L 129.875 59.007812 L 129.925781 59.261719 C 129.996094 59.347656 130.152344 59.691406 130.269531 59.679688 L 130.316406 59.671875 C 130.351562 59.667969 130.363281 59.65625 130.359375 59.621094 L 130.351562 59.570312 C 130.320312 59.277344 129.890625 59.066406 130.007812 58.75 C 129.976562 58.480469 130.113281 58.332031 130.09375 58.136719 C 130.082031 58.152344 129.972656 58.375 129.941406 58.417969 C 129.882812 58.511719 129.820312 58.585938 129.746094 58.664062 C 129.644531 58.78125 129.421875 59.019531 129.226562 59.042969 Z M 127.316406 58.523438 L 127.40625 58.886719 L 127.5 59.039062 C 127.546875 59.039062 127.554688 59.046875 127.609375 59.042969 C 127.671875 59.035156 127.691406 58.925781 127.683594 58.855469 L 127.660156 58.648438 C 127.652344 58.585938 127.5625 58.496094 127.546875 58.351562 C 127.527344 58.21875 127.527344 58.09375 127.488281 57.984375 C 127.355469 58.011719 127.269531 58.355469 127.316406 58.523438 Z M 125.492188 58.089844 L 125.519531 58.347656 L 125.5625 58.550781 C 125.648438 58.597656 125.585938 58.613281 125.714844 58.664062 C 125.804688 58.632812 125.832031 58.609375 125.820312 58.492188 L 125.808594 58.378906 C 125.796875 58.300781 125.726562 58.15625 125.714844 58.078125 C 125.699219 57.996094 125.734375 57.878906 125.71875 57.753906 C 125.800781 57.710938 125.707031 57.585938 125.570312 57.789062 C 125.542969 57.835938 125.484375 58.015625 125.492188 58.089844 Z M 125.492188 58.089844 " fill-opacity="1" fill-rule="nonzero"/></g></g></g></g><path fill="#393be5" d="M 77.398438 49.976562 L 116.664062 49.976562 L 116.664062 57.175781 L 77.398438 57.175781 L 77.398438 49.976562 " fill-opacity="1" fill-rule="nonzero"/><g fill="#ffffff" fill-opacity="1"><g transform="translate(79.758744, 54.88359)"><g><path d="M 2.359375 -0.53125 L 2.359375 0 L 0.78125 0 L 0.78125 -0.53125 Z M 0.265625 -0.53125 L 0.265625 -3.140625 L 0.78125 -3.140625 L 0.78125 -0.53125 Z M 0.78125 -3.140625 L 0.78125 -3.671875 L 2.359375 -3.671875 L 2.359375 -3.140625 Z M 1.828125 -1.578125 L 1.828125 -2.09375 L 2.875 -2.09375 L 2.875 -0.53125 L 2.359375 -0.53125 L 2.359375 -1.578125 Z M 2.359375 -2.625 L 2.359375 -3.140625 L 2.875 -3.140625 L 2.875 -2.625 Z M 2.359375 -2.625 "/></g></g></g><g fill="#ffffff" fill-opacity="1"><g transform="translate(83.683396, 54.88359)"><g><path d="M 0.265625 0 L 0.265625 -3.671875 L 2.875 -3.671875 L 2.875 -3.140625 L 0.78125 -3.140625 L 0.78125 -2.09375 L 2.359375 -2.09375 L 2.359375 -1.578125 L 0.78125 -1.578125 L 0.78125 -0.53125 L 2.875 -0.53125 L 2.875 0 Z M 0.265625 0 "/></g></g></g><g fill="#ffffff" fill-opacity="1"><g transform="translate(87.608048, 54.88359)"><g><path d="M 2.359375 0 L 2.359375 -1.578125 L 1.828125 -1.578125 L 1.828125 -2.09375 L 2.359375 -2.09375 L 2.359375 -3.671875 L 2.875 -3.671875 L 2.875 0 Z M 0.265625 0 L 0.265625 -3.671875 L 0.78125 -3.671875 L 0.78125 -3.140625 L 1.3125 -3.140625 L 1.3125 -2.625 L 0.78125 -2.625 L 0.78125 0 Z M 1.3125 -2.09375 L 1.3125 -2.625 L 1.828125 -2.625 L 1.828125 -2.09375 Z M 1.3125 -2.09375 "/></g></g></g><g fill="#ffffff" fill-opacity="1"><g transform="translate(91.5327, 54.88359)"><g><path d="M 2.359375 -0.53125 L 2.359375 0 L 0.78125 0 L 0.78125 -0.53125 Z M 0.265625 -0.53125 L 0.265625 -3.140625 L 0.78125 -3.140625 L 0.78125 -0.53125 Z M 0.78125 -3.140625 L 0.78125 -3.671875 L 2.359375 -3.671875 L 2.359375 -3.140625 Z M 1.828125 -1.578125 L 1.828125 -2.09375 L 2.875 -2.09375 L 2.875 -0.53125 L 2.359375 -0.53125 L 2.359375 -1.578125 Z M 2.359375 -2.625 L 2.359375 -3.140625 L 2.875 -3.140625 L 2.875 -2.625 Z M 2.359375 -2.625 "/></g></g></g><g fill="#ffffff" fill-opacity="1"><g transform="translate(95.457351, 54.88359)"><g><path d="M 2.359375 -0.53125 L 2.359375 0 L 0.78125 0 L 0.78125 -0.53125 Z M 0.265625 -0.53125 L 0.265625 -3.140625 L 0.78125 -3.140625 L 0.78125 -0.53125 Z M 0.78125 -3.140625 L 0.78125 -3.671875 L 2.359375 -3.671875 L 2.359375 -3.140625 Z M 1.828125 -1.578125 L 1.828125 -2.09375 L 2.875 -2.09375 L 2.875 -0.53125 L 2.359375 -0.53125 L 2.359375 -1.578125 Z M 2.359375 -2.625 L 2.359375 -3.140625 L 2.875 -3.140625 L 2.875 -2.625 Z M 2.359375 -2.625 "/></g></g></g><g fill="#ffffff" fill-opacity="1"><g transform="translate(99.382003, 54.88359)"><g><path d="M 0.265625 0 L 0.265625 -3.140625 L 0.78125 -3.140625 L 0.78125 -1.578125 L 2.359375 -1.578125 L 2.359375 -3.140625 L 2.875 -3.140625 L 2.875 0 L 2.359375 0 L 2.359375 -1.046875 L 0.78125 -1.046875 L 0.78125 0 Z M 0.78125 -3.140625 L 0.78125 -3.671875 L 2.359375 -3.671875 L 2.359375 -3.140625 Z M 0.78125 -3.140625 "/></g></g></g><g fill="#ffffff" fill-opacity="1"><g transform="translate(103.306655, 54.88359)"><g><path d="M 2.359375 0 L 2.359375 -2.625 L 1.828125 -2.625 L 1.828125 -3.140625 L 2.359375 -3.140625 L 2.359375 -3.671875 L 2.875 -3.671875 L 2.875 0 Z M 0.265625 0 L 0.265625 -3.671875 L 0.78125 -3.671875 L 0.78125 -3.140625 L 1.3125 -3.140625 L 1.3125 -2.625 L 0.78125 -2.625 L 0.78125 0 Z M 1.3125 -2.09375 L 1.3125 -2.625 L 1.828125 -2.625 L 1.828125 -2.09375 Z M 1.3125 -2.09375 "/></g></g></g><g fill="#ffffff" fill-opacity="1"><g transform="translate(107.231306, 54.88359)"><g><path d="M 0.265625 0 L 0.265625 -3.140625 L 0.78125 -3.140625 L 0.78125 -1.578125 L 2.359375 -1.578125 L 2.359375 -3.140625 L 2.875 -3.140625 L 2.875 0 L 2.359375 0 L 2.359375 -1.046875 L 0.78125 -1.046875 L 0.78125 0 Z M 0.78125 -3.140625 L 0.78125 -3.671875 L 2.359375 -3.671875 L 2.359375 -3.140625 Z M 0.78125 -3.140625 "/></g></g></g><g fill="#ffffff" fill-opacity="1"><g transform="translate(111.155959, 54.88359)"><g><path d="M 2.359375 0 L 2.359375 -1.578125 L 1.828125 -1.578125 L 1.828125 -2.09375 L 2.359375 -2.09375 L 2.359375 -3.671875 L 2.875 -3.671875 L 2.875 0 Z M 0.265625 0 L 0.265625 -3.671875 L 0.78125 -3.671875 L 0.78125 -3.140625 L 1.3125 -3.140625 L 1.3125 -2.625 L 0.78125 -2.625 L 0.78125 0 Z M 1.3125 -2.09375 L 1.3125 -2.625 L 1.828125 -2.625 L 1.828125 -2.09375 Z M 1.3125 -2.09375 "/></g></g></g><g fill="#ffffff" fill-opacity="1"><g transform="translate(115.087196, 54.88359)"><g/></g></g><path fill="#ffffff" d="M 78.753906 48.472656 L 78.753906 38.722656 L 57.308594 38.722656 L 57.308594 26.242188 L 159.839844 26.242188 L 159.839844 38.722656 L 138.394531 38.722656 L 138.394531 48.472656 L 78.753906 48.472656 " fill-opacity="1" fill-rule="nonzero"/><g fill="#393be5" fill-opacity="1"><g transform="translate(58.541044, 35.106787)"><g><path d="M 1.078125 -0.140625 L 1.078125 -0.640625 C 1.078125 -0.671875 1.085938 -0.703125 1.109375 -0.734375 C 1.140625 -0.765625 1.175781 -0.78125 1.21875 -0.78125 L 3.1875 -0.78125 L 3.1875 -6.265625 L 1.21875 -6.265625 C 1.125 -6.265625 1.078125 -6.3125 1.078125 -6.40625 L 1.078125 -6.90625 C 1.078125 -7 1.125 -7.046875 1.21875 -7.046875 L 5.9375 -7.046875 C 6.03125 -7.046875 6.078125 -7 6.078125 -6.90625 L 6.078125 -6.40625 C 6.078125 -6.3125 6.03125 -6.265625 5.9375 -6.265625 L 3.96875 -6.265625 L 3.96875 -0.78125 L 5.9375 -0.78125 C 5.976562 -0.78125 6.007812 -0.765625 6.03125 -0.734375 C 6.0625 -0.703125 6.078125 -0.671875 6.078125 -0.640625 L 6.078125 -0.140625 C 6.078125 -0.046875 6.03125 0 5.9375 0 L 1.21875 0 C 1.125 0 1.078125 -0.046875 1.078125 -0.140625 Z M 1.078125 -0.140625 "/></g></g></g><g fill="#393be5" fill-opacity="1"><g transform="translate(65.688016, 35.106787)"><g><path d="M 5.4375 -0.140625 L 5.4375 -3.09375 L 1.71875 -6.171875 L 1.71875 -0.140625 C 1.71875 -0.046875 1.671875 0 1.578125 0 L 1.078125 0 C 1.046875 0 1.015625 -0.0078125 0.984375 -0.03125 C 0.953125 -0.0625 0.9375 -0.0976562 0.9375 -0.140625 L 0.9375 -6.90625 C 0.9375 -6.9375 0.953125 -6.96875 0.984375 -7 C 1.015625 -7.03125 1.046875 -7.046875 1.078125 -7.046875 L 1.765625 -7.046875 C 1.859375 -7.046875 1.941406 -7.015625 2.015625 -6.953125 L 5.4375 -4.125 L 5.4375 -6.90625 C 5.4375 -7 5.484375 -7.046875 5.578125 -7.046875 L 6.078125 -7.046875 C 6.171875 -7.046875 6.21875 -7 6.21875 -6.90625 L 6.21875 -0.140625 C 6.21875 -0.046875 6.171875 0 6.078125 0 L 5.578125 0 C 5.484375 0 5.4375 -0.046875 5.4375 -0.140625 Z M 5.4375 -0.140625 "/></g></g></g><g fill="#393be5" fill-opacity="1"><g transform="translate(72.834988, 35.106787)"><g><path d="M 0.9375 -1.5 L 0.9375 -1.96875 C 0.9375 -2 0.953125 -2.03125 0.984375 -2.0625 C 1.015625 -2.09375 1.046875 -2.109375 1.078125 -2.109375 L 1.578125 -2.109375 C 1.609375 -2.109375 1.640625 -2.09375 1.671875 -2.0625 C 1.703125 -2.03125 1.71875 -2 1.71875 -1.96875 L 1.71875 -1.5 C 1.71875 -1.300781 1.785156 -1.128906 1.921875 -0.984375 C 2.066406 -0.847656 2.238281 -0.78125 2.4375 -0.78125 L 4.71875 -0.78125 C 4.914062 -0.78125 5.082031 -0.847656 5.21875 -0.984375 C 5.363281 -1.128906 5.4375 -1.300781 5.4375 -1.5 L 5.4375 -2.40625 C 5.4375 -2.601562 5.363281 -2.769531 5.21875 -2.90625 C 5.082031 -3.050781 4.914062 -3.125 4.71875 -3.125 L 2.4375 -3.125 C 2.226562 -3.125 2.03125 -3.160156 1.84375 -3.234375 C 1.664062 -3.316406 1.507812 -3.425781 1.375 -3.5625 C 1.238281 -3.695312 1.128906 -3.859375 1.046875 -4.046875 C 0.972656 -4.234375 0.9375 -4.425781 0.9375 -4.625 L 0.9375 -5.546875 C 0.9375 -5.742188 0.972656 -5.929688 1.046875 -6.109375 C 1.128906 -6.296875 1.238281 -6.457031 1.375 -6.59375 C 1.507812 -6.738281 1.664062 -6.847656 1.84375 -6.921875 C 2.03125 -7.003906 2.226562 -7.046875 2.4375 -7.046875 L 4.71875 -7.046875 C 4.925781 -7.046875 5.117188 -7.003906 5.296875 -6.921875 C 5.484375 -6.847656 5.644531 -6.738281 5.78125 -6.59375 C 5.914062 -6.457031 6.019531 -6.296875 6.09375 -6.109375 C 6.175781 -5.929688 6.21875 -5.742188 6.21875 -5.546875 L 6.21875 -5.078125 C 6.21875 -4.972656 6.171875 -4.921875 6.078125 -4.921875 L 5.578125 -4.921875 C 5.484375 -4.921875 5.4375 -4.972656 5.4375 -5.078125 L 5.4375 -5.546875 C 5.4375 -5.742188 5.363281 -5.910156 5.21875 -6.046875 C 5.082031 -6.191406 4.914062 -6.265625 4.71875 -6.265625 L 2.4375 -6.265625 C 2.238281 -6.265625 2.066406 -6.191406 1.921875 -6.046875 C 1.785156 -5.910156 1.71875 -5.742188 1.71875 -5.546875 L 1.71875 -4.625 C 1.71875 -4.425781 1.785156 -4.253906 1.921875 -4.109375 C 2.066406 -3.972656 2.238281 -3.90625 2.4375 -3.90625 L 4.71875 -3.90625 C 4.925781 -3.90625 5.117188 -3.863281 5.296875 -3.78125 C 5.484375 -3.707031 5.644531 -3.601562 5.78125 -3.46875 C 5.914062 -3.332031 6.019531 -3.171875 6.09375 -2.984375 C 6.175781 -2.804688 6.21875 -2.613281 6.21875 -2.40625 L 6.21875 -1.5 C 6.21875 -1.289062 6.175781 -1.09375 6.09375 -0.90625 C 6.019531 -0.726562 5.914062 -0.570312 5.78125 -0.4375 C 5.644531 -0.300781 5.484375 -0.191406 5.296875 -0.109375 C 5.117188 -0.0351562 4.925781 0 4.71875 0 L 2.4375 0 C 2.226562 0 2.03125 -0.0351562 1.84375 -0.109375 C 1.664062 -0.191406 1.507812 -0.300781 1.375 -0.4375 C 1.238281 -0.570312 1.128906 -0.726562 1.046875 -0.90625 C 0.972656 -1.09375 0.9375 -1.289062 0.9375 -1.5 Z M 0.9375 -1.5 "/></g></g></g><g fill="#393be5" fill-opacity="1"><g transform="translate(79.98196, 35.106787)"><g><path d="M 1.09375 -6.90625 C 1.09375 -7 1.140625 -7.046875 1.234375 -7.046875 L 6.03125 -7.046875 C 6.125 -7.046875 6.171875 -7 6.171875 -6.90625 L 6.171875 -6.40625 C 6.171875 -6.3125 6.125 -6.265625 6.03125 -6.265625 L 1.875 -6.265625 L 1.875 -3.90625 L 5.671875 -3.90625 C 5.710938 -3.90625 5.75 -3.890625 5.78125 -3.859375 C 5.8125 -3.828125 5.828125 -3.796875 5.828125 -3.765625 L 5.828125 -3.28125 C 5.828125 -3.238281 5.8125 -3.203125 5.78125 -3.171875 C 5.75 -3.140625 5.710938 -3.125 5.671875 -3.125 L 1.875 -3.125 L 1.875 -0.140625 C 1.875 -0.046875 1.820312 0 1.71875 0 L 1.234375 0 C 1.140625 0 1.09375 -0.046875 1.09375 -0.140625 Z M 1.09375 -6.90625 "/></g></g></g><g fill="#393be5" fill-opacity="1"><g transform="translate(87.128932, 35.106787)"><g><path d="M 5.25 -0.140625 L 3.90625 -3.125 L 1.71875 -3.125 L 1.71875 -0.140625 C 1.71875 -0.046875 1.671875 0 1.578125 0 L 1.09375 0 C 0.988281 0 0.9375 -0.046875 0.9375 -0.140625 L 0.9375 -6.90625 C 0.9375 -7 0.988281 -7.046875 1.09375 -7.046875 L 4.71875 -7.046875 C 4.925781 -7.046875 5.117188 -7.003906 5.296875 -6.921875 C 5.484375 -6.847656 5.644531 -6.738281 5.78125 -6.59375 C 5.914062 -6.457031 6.019531 -6.296875 6.09375 -6.109375 C 6.175781 -5.929688 6.21875 -5.742188 6.21875 -5.546875 L 6.21875 -4.625 C 6.21875 -4.289062 6.113281 -3.992188 5.90625 -3.734375 C 5.707031 -3.472656 5.445312 -3.289062 5.125 -3.1875 L 4.78125 -3.09375 L 6.09375 -0.140625 C 6.113281 -0.0976562 6.113281 -0.0625 6.09375 -0.03125 C 6.082031 -0.0078125 6.054688 0 6.015625 0 L 5.453125 0 C 5.410156 0 5.367188 -0.0078125 5.328125 -0.03125 C 5.285156 -0.0625 5.257812 -0.0976562 5.25 -0.140625 Z M 1.71875 -3.90625 L 4.71875 -3.90625 C 4.914062 -3.90625 5.082031 -3.972656 5.21875 -4.109375 C 5.363281 -4.253906 5.4375 -4.425781 5.4375 -4.625 L 5.4375 -5.546875 C 5.4375 -5.742188 5.363281 -5.910156 5.21875 -6.046875 C 5.082031 -6.191406 4.914062 -6.265625 4.71875 -6.265625 L 1.71875 -6.265625 Z M 1.71875 -3.90625 "/></g></g></g><g fill="#393be5" fill-opacity="1"><g transform="translate(94.275904, 35.106787)"><g><path d="M 4.53125 -7.046875 C 4.570312 -7.046875 4.613281 -7.03125 4.65625 -7 C 4.695312 -6.96875 4.722656 -6.9375 4.734375 -6.90625 L 6.15625 -3.34375 C 6.175781 -3.300781 6.1875 -3.253906 6.1875 -3.203125 C 6.195312 -3.148438 6.203125 -3.101562 6.203125 -3.0625 L 6.203125 -0.140625 C 6.203125 -0.046875 6.15625 0 6.0625 0 L 5.578125 0 C 5.484375 0 5.4375 -0.046875 5.4375 -0.140625 L 5.4375 -2.046875 L 1.71875 -2.046875 L 1.71875 -0.140625 C 1.71875 -0.046875 1.671875 0 1.578125 0 L 1.078125 0 C 0.984375 0 0.9375 -0.046875 0.9375 -0.140625 L 0.9375 -3.0625 C 0.9375 -3.101562 0.941406 -3.148438 0.953125 -3.203125 C 0.960938 -3.253906 0.972656 -3.300781 0.984375 -3.34375 L 2.40625 -6.90625 C 2.425781 -6.9375 2.457031 -6.96875 2.5 -7 C 2.539062 -7.03125 2.578125 -7.046875 2.609375 -7.046875 Z M 5.4375 -2.8125 L 5.4375 -3.0625 L 4.15625 -6.265625 L 3 -6.265625 L 1.71875 -3.0625 L 1.71875 -2.8125 Z M 5.4375 -2.8125 "/></g></g></g><g fill="#393be5" fill-opacity="1"><g transform="translate(101.422876, 35.106787)"><g><path d="M 0.9375 -1.5 L 0.9375 -1.96875 C 0.9375 -2 0.953125 -2.03125 0.984375 -2.0625 C 1.015625 -2.09375 1.046875 -2.109375 1.078125 -2.109375 L 1.578125 -2.109375 C 1.609375 -2.109375 1.640625 -2.09375 1.671875 -2.0625 C 1.703125 -2.03125 1.71875 -2 1.71875 -1.96875 L 1.71875 -1.5 C 1.71875 -1.300781 1.785156 -1.128906 1.921875 -0.984375 C 2.066406 -0.847656 2.238281 -0.78125 2.4375 -0.78125 L 4.71875 -0.78125 C 4.914062 -0.78125 5.082031 -0.847656 5.21875 -0.984375 C 5.363281 -1.128906 5.4375 -1.300781 5.4375 -1.5 L 5.4375 -2.40625 C 5.4375 -2.601562 5.363281 -2.769531 5.21875 -2.90625 C 5.082031 -3.050781 4.914062 -3.125 4.71875 -3.125 L 2.4375 -3.125 C 2.226562 -3.125 2.03125 -3.160156 1.84375 -3.234375 C 1.664062 -3.316406 1.507812 -3.425781 1.375 -3.5625 C 1.238281 -3.695312 1.128906 -3.859375 1.046875 -4.046875 C 0.972656 -4.234375 0.9375 -4.425781 0.9375 -4.625 L 0.9375 -5.546875 C 0.9375 -5.742188 0.972656 -5.929688 1.046875 -6.109375 C 1.128906 -6.296875 1.238281 -6.457031 1.375 -6.59375 C 1.507812 -6.738281 1.664062 -6.847656 1.84375 -6.921875 C 2.03125 -7.003906 2.226562 -7.046875 2.4375 -7.046875 L 4.71875 -7.046875 C 4.925781 -7.046875 5.117188 -7.003906 5.296875 -6.921875 C 5.484375 -6.847656 5.644531 -6.738281 5.78125 -6.59375 C 5.914062 -6.457031 6.019531 -6.296875 6.09375 -6.109375 C 6.175781 -5.929688 6.21875 -5.742188 6.21875 -5.546875 L 6.21875 -5.078125 C 6.21875 -4.972656 6.171875 -4.921875 6.078125 -4.921875 L 5.578125 -4.921875 C 5.484375 -4.921875 5.4375 -4.972656 5.4375 -5.078125 L 5.4375 -5.546875 C 5.4375 -5.742188 5.363281 -5.910156 5.21875 -6.046875 C 5.082031 -6.191406 4.914062 -6.265625 4.71875 -6.265625 L 2.4375 -6.265625 C 2.238281 -6.265625 2.066406 -6.191406 1.921875 -6.046875 C 1.785156 -5.910156 1.71875 -5.742188 1.71875 -5.546875 L 1.71875 -4.625 C 1.71875 -4.425781 1.785156 -4.253906 1.921875 -4.109375 C 2.066406 -3.972656 2.238281 -3.90625 2.4375 -3.90625 L 4.71875 -3.90625 C 4.925781 -3.90625 5.117188 -3.863281 5.296875 -3.78125 C 5.484375 -3.707031 5.644531 -3.601562 5.78125 -3.46875 C 5.914062 -3.332031 6.019531 -3.171875 6.09375 -2.984375 C 6.175781 -2.804688 6.21875 -2.613281 6.21875 -2.40625 L 6.21875 -1.5 C 6.21875 -1.289062 6.175781 -1.09375 6.09375 -0.90625 C 6.019531 -0.726562 5.914062 -0.570312 5.78125 -0.4375 C 5.644531 -0.300781 5.484375 -0.191406 5.296875 -0.109375 C 5.117188 -0.0351562 4.925781 0 4.71875 0 L 2.4375 0 C 2.226562 0 2.03125 -0.0351562 1.84375 -0.109375 C 1.664062 -0.191406 1.507812 -0.300781 1.375 -0.4375 C 1.238281 -0.570312 1.128906 -0.726562 1.046875 -0.90625 C 0.972656 -1.09375 0.9375 -1.289062 0.9375 -1.5 Z M 0.9375 -1.5 "/></g></g></g><g fill="#393be5" fill-opacity="1"><g transform="translate(108.569849, 35.106787)"><g><path d="M 3.1875 -0.140625 L 3.1875 -6.265625 L 1.09375 -6.265625 C 0.988281 -6.265625 0.9375 -6.3125 0.9375 -6.40625 L 0.9375 -6.90625 C 0.9375 -7 0.988281 -7.046875 1.09375 -7.046875 L 6.078125 -7.046875 C 6.171875 -7.046875 6.21875 -7 6.21875 -6.90625 L 6.21875 -6.40625 C 6.21875 -6.3125 6.171875 -6.265625 6.078125 -6.265625 L 3.96875 -6.265625 L 3.96875 -0.140625 C 3.96875 -0.0976562 3.953125 -0.0625 3.921875 -0.03125 C 3.890625 -0.0078125 3.859375 0 3.828125 0 L 3.34375 0 C 3.238281 0 3.1875 -0.046875 3.1875 -0.140625 Z M 3.1875 -0.140625 "/></g></g></g><g fill="#393be5" fill-opacity="1"><g transform="translate(115.716821, 35.106787)"><g><path d="M 5.25 -0.140625 L 3.90625 -3.125 L 1.71875 -3.125 L 1.71875 -0.140625 C 1.71875 -0.046875 1.671875 0 1.578125 0 L 1.09375 0 C 0.988281 0 0.9375 -0.046875 0.9375 -0.140625 L 0.9375 -6.90625 C 0.9375 -7 0.988281 -7.046875 1.09375 -7.046875 L 4.71875 -7.046875 C 4.925781 -7.046875 5.117188 -7.003906 5.296875 -6.921875 C 5.484375 -6.847656 5.644531 -6.738281 5.78125 -6.59375 C 5.914062 -6.457031 6.019531 -6.296875 6.09375 -6.109375 C 6.175781 -5.929688 6.21875 -5.742188 6.21875 -5.546875 L 6.21875 -4.625 C 6.21875 -4.289062 6.113281 -3.992188 5.90625 -3.734375 C 5.707031 -3.472656 5.445312 -3.289062 5.125 -3.1875 L 4.78125 -3.09375 L 6.09375 -0.140625 C 6.113281 -0.0976562 6.113281 -0.0625 6.09375 -0.03125 C 6.082031 -0.0078125 6.054688 0 6.015625 0 L 5.453125 0 C 5.410156 0 5.367188 -0.0078125 5.328125 -0.03125 C 5.285156 -0.0625 5.257812 -0.0976562 5.25 -0.140625 Z M 1.71875 -3.90625 L 4.71875 -3.90625 C 4.914062 -3.90625 5.082031 -3.972656 5.21875 -4.109375 C 5.363281 -4.253906 5.4375 -4.425781 5.4375 -4.625 L 5.4375 -5.546875 C 5.4375 -5.742188 5.363281 -5.910156 5.21875 -6.046875 C 5.082031 -6.191406 4.914062 -6.265625 4.71875 -6.265625 L 1.71875 -6.265625 Z M 1.71875 -3.90625 "/></g></g></g><g fill="#393be5" fill-opacity="1"><g transform="translate(122.863793, 35.106787)"><g><path d="M 0.9375 -1.5 L 0.9375 -6.90625 C 0.9375 -6.9375 0.953125 -6.96875 0.984375 -7 C 1.015625 -7.03125 1.046875 -7.046875 1.078125 -7.046875 L 1.578125 -7.046875 C 1.671875 -7.046875 1.71875 -7 1.71875 -6.90625 L 1.71875 -1.5 C 1.71875 -1.300781 1.785156 -1.128906 1.921875 -0.984375 C 2.066406 -0.847656 2.238281 -0.78125 2.4375 -0.78125 L 4.71875 -0.78125 C 4.914062 -0.78125 5.082031 -0.847656 5.21875 -0.984375 C 5.363281 -1.128906 5.4375 -1.300781 5.4375 -1.5 L 5.4375 -6.90625 C 5.4375 -7 5.484375 -7.046875 5.578125 -7.046875 L 6.078125 -7.046875 C 6.171875 -7.046875 6.21875 -7 6.21875 -6.90625 L 6.21875 -1.5 C 6.21875 -1.289062 6.175781 -1.09375 6.09375 -0.90625 C 6.019531 -0.726562 5.914062 -0.570312 5.78125 -0.4375 C 5.644531 -0.300781 5.484375 -0.191406 5.296875 -0.109375 C 5.117188 -0.0351562 4.925781 0 4.71875 0 L 2.4375 0 C 2.226562 0 2.03125 -0.0351562 1.84375 -0.109375 C 1.664062 -0.191406 1.507812 -0.300781 1.375 -0.4375 C 1.238281 -0.570312 1.128906 -0.726562 1.046875 -0.90625 C 0.972656 -1.09375 0.9375 -1.289062 0.9375 -1.5 Z M 0.9375 -1.5 "/></g></g></g><g fill="#393be5" fill-opacity="1"><g transform="translate(130.010765, 35.106787)"><g><path d="M 5.25 -0.125 L 3.546875 -3.125 L 1.78125 -3.125 L 1.78125 -0.140625 C 1.78125 -0.046875 1.726562 0 1.625 0 L 1.140625 0 C 1.109375 0 1.078125 -0.0078125 1.046875 -0.03125 C 1.015625 -0.0625 1 -0.0976562 1 -0.140625 L 1 -6.90625 C 1 -6.9375 1.015625 -6.96875 1.046875 -7 C 1.078125 -7.03125 1.109375 -7.046875 1.140625 -7.046875 L 1.625 -7.046875 C 1.726562 -7.046875 1.78125 -7 1.78125 -6.90625 L 1.78125 -3.90625 L 3.546875 -3.90625 L 5.25 -6.921875 C 5.269531 -6.953125 5.300781 -6.976562 5.34375 -7 C 5.382812 -7.03125 5.425781 -7.046875 5.46875 -7.046875 L 6.0625 -7.046875 C 6.101562 -7.046875 6.128906 -7.03125 6.140625 -7 C 6.160156 -6.976562 6.160156 -6.953125 6.140625 -6.921875 L 4.234375 -3.515625 L 6.140625 -0.125 C 6.179688 -0.0390625 6.15625 0 6.0625 0 L 5.46875 0 C 5.363281 0 5.289062 -0.0390625 5.25 -0.125 Z M 5.25 -0.125 "/></g></g></g><g fill="#393be5" fill-opacity="1"><g transform="translate(137.157737, 35.106787)"><g><path d="M 3.1875 -0.140625 L 3.1875 -6.265625 L 1.09375 -6.265625 C 0.988281 -6.265625 0.9375 -6.3125 0.9375 -6.40625 L 0.9375 -6.90625 C 0.9375 -7 0.988281 -7.046875 1.09375 -7.046875 L 6.078125 -7.046875 C 6.171875 -7.046875 6.21875 -7 6.21875 -6.90625 L 6.21875 -6.40625 C 6.21875 -6.3125 6.171875 -6.265625 6.078125 -6.265625 L 3.96875 -6.265625 L 3.96875 -0.140625 C 3.96875 -0.0976562 3.953125 -0.0625 3.921875 -0.03125 C 3.890625 -0.0078125 3.859375 0 3.828125 0 L 3.34375 0 C 3.238281 0 3.1875 -0.046875 3.1875 -0.140625 Z M 3.1875 -0.140625 "/></g></g></g><g fill="#393be5" fill-opacity="1"><g transform="translate(144.304709, 35.106787)"><g><path d="M 0.9375 -1.5 L 0.9375 -6.90625 C 0.9375 -6.9375 0.953125 -6.96875 0.984375 -7 C 1.015625 -7.03125 1.046875 -7.046875 1.078125 -7.046875 L 1.578125 -7.046875 C 1.671875 -7.046875 1.71875 -7 1.71875 -6.90625 L 1.71875 -1.5 C 1.71875 -1.300781 1.785156 -1.128906 1.921875 -0.984375 C 2.066406 -0.847656 2.238281 -0.78125 2.4375 -0.78125 L 4.71875 -0.78125 C 4.914062 -0.78125 5.082031 -0.847656 5.21875 -0.984375 C 5.363281 -1.128906 5.4375 -1.300781 5.4375 -1.5 L 5.4375 -6.90625 C 5.4375 -7 5.484375 -7.046875 5.578125 -7.046875 L 6.078125 -7.046875 C 6.171875 -7.046875 6.21875 -7 6.21875 -6.90625 L 6.21875 -1.5 C 6.21875 -1.289062 6.175781 -1.09375 6.09375 -0.90625 C 6.019531 -0.726562 5.914062 -0.570312 5.78125 -0.4375 C 5.644531 -0.300781 5.484375 -0.191406 5.296875 -0.109375 C 5.117188 -0.0351562 4.925781 0 4.71875 0 L 2.4375 0 C 2.226562 0 2.03125 -0.0351562 1.84375 -0.109375 C 1.664062 -0.191406 1.507812 -0.300781 1.375 -0.4375 C 1.238281 -0.570312 1.128906 -0.726562 1.046875 -0.90625 C 0.972656 -1.09375 0.9375 -1.289062 0.9375 -1.5 Z M 0.9375 -1.5 "/></g></g></g><g fill="#393be5" fill-opacity="1"><g transform="translate(151.451681, 35.106787)"><g><path d="M 5.25 -0.140625 L 3.90625 -3.125 L 1.71875 -3.125 L 1.71875 -0.140625 C 1.71875 -0.046875 1.671875 0 1.578125 0 L 1.09375 0 C 0.988281 0 0.9375 -0.046875 0.9375 -0.140625 L 0.9375 -6.90625 C 0.9375 -7 0.988281 -7.046875 1.09375 -7.046875 L 4.71875 -7.046875 C 4.925781 -7.046875 5.117188 -7.003906 5.296875 -6.921875 C 5.484375 -6.847656 5.644531 -6.738281 5.78125 -6.59375 C 5.914062 -6.457031 6.019531 -6.296875 6.09375 -6.109375 C 6.175781 -5.929688 6.21875 -5.742188 6.21875 -5.546875 L 6.21875 -4.625 C 6.21875 -4.289062 6.113281 -3.992188 5.90625 -3.734375 C 5.707031 -3.472656 5.445312 -3.289062 5.125 -3.1875 L 4.78125 -3.09375 L 6.09375 -0.140625 C 6.113281 -0.0976562 6.113281 -0.0625 6.09375 -0.03125 C 6.082031 -0.0078125 6.054688 0 6.015625 0 L 5.453125 0 C 5.410156 0 5.367188 -0.0078125 5.328125 -0.03125 C 5.285156 -0.0625 5.257812 -0.0976562 5.25 -0.140625 Z M 1.71875 -3.90625 L 4.71875 -3.90625 C 4.914062 -3.90625 5.082031 -3.972656 5.21875 -4.109375 C 5.363281 -4.253906 5.4375 -4.425781 5.4375 -4.625 L 5.4375 -5.546875 C 5.4375 -5.742188 5.363281 -5.910156 5.21875 -6.046875 C 5.082031 -6.191406 4.914062 -6.265625 4.71875 -6.265625 L 1.71875 -6.265625 Z M 1.71875 -3.90625 "/></g></g></g><g fill="#393be5" fill-opacity="1"><g transform="translate(79.986355, 44.856787)"><g/></g></g><g fill="#393be5" fill-opacity="1"><g transform="translate(79.986355, 44.856787)"><g><path d="M 1.078125 -0.140625 L 1.078125 -0.640625 C 1.078125 -0.671875 1.085938 -0.703125 1.109375 -0.734375 C 1.140625 -0.765625 1.175781 -0.78125 1.21875 -0.78125 L 3.1875 -0.78125 L 3.1875 -6.265625 L 1.21875 -6.265625 C 1.125 -6.265625 1.078125 -6.3125 1.078125 -6.40625 L 1.078125 -6.90625 C 1.078125 -7 1.125 -7.046875 1.21875 -7.046875 L 5.9375 -7.046875 C 6.03125 -7.046875 6.078125 -7 6.078125 -6.90625 L 6.078125 -6.40625 C 6.078125 -6.3125 6.03125 -6.265625 5.9375 -6.265625 L 3.96875 -6.265625 L 3.96875 -0.78125 L 5.9375 -0.78125 C 5.976562 -0.78125 6.007812 -0.765625 6.03125 -0.734375 C 6.0625 -0.703125 6.078125 -0.671875 6.078125 -0.640625 L 6.078125 -0.140625 C 6.078125 -0.046875 6.03125 0 5.9375 0 L 1.21875 0 C 1.125 0 1.078125 -0.046875 1.078125 -0.140625 Z M 1.078125 -0.140625 "/></g></g></g><g fill="#393be5" fill-opacity="1"><g transform="translate(87.133327, 44.856787)"><g><path d="M 3.1875 -0.140625 L 3.1875 -6.265625 L 1.09375 -6.265625 C 0.988281 -6.265625 0.9375 -6.3125 0.9375 -6.40625 L 0.9375 -6.90625 C 0.9375 -7 0.988281 -7.046875 1.09375 -7.046875 L 6.078125 -7.046875 C 6.171875 -7.046875 6.21875 -7 6.21875 -6.90625 L 6.21875 -6.40625 C 6.21875 -6.3125 6.171875 -6.265625 6.078125 -6.265625 L 3.96875 -6.265625 L 3.96875 -0.140625 C 3.96875 -0.0976562 3.953125 -0.0625 3.921875 -0.03125 C 3.890625 -0.0078125 3.859375 0 3.828125 0 L 3.34375 0 C 3.238281 0 3.1875 -0.046875 3.1875 -0.140625 Z M 3.1875 -0.140625 "/></g></g></g><g fill="#393be5" fill-opacity="1"><g transform="translate(94.280299, 44.856787)"><g/></g></g><g fill="#393be5" fill-opacity="1"><g transform="translate(101.417017, 44.856787)"><g><path d="M 0.9375 -0.140625 L 0.9375 -6.90625 C 0.9375 -6.9375 0.953125 -6.96875 0.984375 -7 C 1.015625 -7.03125 1.046875 -7.046875 1.078125 -7.046875 L 4.71875 -7.046875 C 4.925781 -7.046875 5.117188 -7.003906 5.296875 -6.921875 C 5.484375 -6.847656 5.644531 -6.738281 5.78125 -6.59375 C 5.914062 -6.457031 6.019531 -6.296875 6.09375 -6.109375 C 6.175781 -5.929688 6.21875 -5.742188 6.21875 -5.546875 L 6.21875 -1.5 C 6.21875 -1.289062 6.175781 -1.09375 6.09375 -0.90625 C 6.019531 -0.726562 5.914062 -0.570312 5.78125 -0.4375 C 5.644531 -0.300781 5.484375 -0.191406 5.296875 -0.109375 C 5.117188 -0.0351562 4.925781 0 4.71875 0 L 1.078125 0 C 1.046875 0 1.015625 -0.0078125 0.984375 -0.03125 C 0.953125 -0.0625 0.9375 -0.0976562 0.9375 -0.140625 Z M 1.71875 -0.78125 L 4.71875 -0.78125 C 4.914062 -0.78125 5.082031 -0.847656 5.21875 -0.984375 C 5.363281 -1.128906 5.4375 -1.300781 5.4375 -1.5 L 5.4375 -5.546875 C 5.4375 -5.742188 5.363281 -5.910156 5.21875 -6.046875 C 5.082031 -6.191406 4.914062 -6.265625 4.71875 -6.265625 L 1.71875 -6.265625 Z M 1.71875 -0.78125 "/></g></g></g><g fill="#393be5" fill-opacity="1"><g transform="translate(108.563989, 44.856787)"><g><path d="M 4.53125 -7.046875 C 4.570312 -7.046875 4.613281 -7.03125 4.65625 -7 C 4.695312 -6.96875 4.722656 -6.9375 4.734375 -6.90625 L 6.15625 -3.34375 C 6.175781 -3.300781 6.1875 -3.253906 6.1875 -3.203125 C 6.195312 -3.148438 6.203125 -3.101562 6.203125 -3.0625 L 6.203125 -0.140625 C 6.203125 -0.046875 6.15625 0 6.0625 0 L 5.578125 0 C 5.484375 0 5.4375 -0.046875 5.4375 -0.140625 L 5.4375 -2.046875 L 1.71875 -2.046875 L 1.71875 -0.140625 C 1.71875 -0.046875 1.671875 0 1.578125 0 L 1.078125 0 C 0.984375 0 0.9375 -0.046875 0.9375 -0.140625 L 0.9375 -3.0625 C 0.9375 -3.101562 0.941406 -3.148438 0.953125 -3.203125 C 0.960938 -3.253906 0.972656 -3.300781 0.984375 -3.34375 L 2.40625 -6.90625 C 2.425781 -6.9375 2.457031 -6.96875 2.5 -7 C 2.539062 -7.03125 2.578125 -7.046875 2.609375 -7.046875 Z M 5.4375 -2.8125 L 5.4375 -3.0625 L 4.15625 -6.265625 L 3 -6.265625 L 1.71875 -3.0625 L 1.71875 -2.8125 Z M 5.4375 -2.8125 "/></g></g></g><g fill="#393be5" fill-opacity="1"><g transform="translate(115.710961, 44.856787)"><g><path d="M 1.359375 -7.046875 L 1.84375 -7.046875 C 1.9375 -7.046875 1.984375 -7 1.984375 -6.90625 L 1.984375 -0.78125 L 6 -0.78125 C 6.039062 -0.78125 6.078125 -0.765625 6.109375 -0.734375 C 6.140625 -0.703125 6.15625 -0.671875 6.15625 -0.640625 L 6.15625 -0.140625 C 6.15625 -0.046875 6.101562 0 6 0 L 1.359375 0 C 1.316406 0 1.28125 -0.0078125 1.25 -0.03125 C 1.226562 -0.0625 1.21875 -0.0976562 1.21875 -0.140625 L 1.21875 -6.90625 C 1.21875 -6.9375 1.226562 -6.96875 1.25 -7 C 1.28125 -7.03125 1.316406 -7.046875 1.359375 -7.046875 Z M 1.359375 -7.046875 "/></g></g></g><g fill="#393be5" fill-opacity="1"><g transform="translate(122.857933, 44.856787)"><g><path d="M 4.53125 -7.046875 C 4.570312 -7.046875 4.613281 -7.03125 4.65625 -7 C 4.695312 -6.96875 4.722656 -6.9375 4.734375 -6.90625 L 6.15625 -3.34375 C 6.175781 -3.300781 6.1875 -3.253906 6.1875 -3.203125 C 6.195312 -3.148438 6.203125 -3.101562 6.203125 -3.0625 L 6.203125 -0.140625 C 6.203125 -0.046875 6.15625 0 6.0625 0 L 5.578125 0 C 5.484375 0 5.4375 -0.046875 5.4375 -0.140625 L 5.4375 -2.046875 L 1.71875 -2.046875 L 1.71875 -0.140625 C 1.71875 -0.046875 1.671875 0 1.578125 0 L 1.078125 0 C 0.984375 0 0.9375 -0.046875 0.9375 -0.140625 L 0.9375 -3.0625 C 0.9375 -3.101562 0.941406 -3.148438 0.953125 -3.203125 C 0.960938 -3.253906 0.972656 -3.300781 0.984375 -3.34375 L 2.40625 -6.90625 C 2.425781 -6.9375 2.457031 -6.96875 2.5 -7 C 2.539062 -7.03125 2.578125 -7.046875 2.609375 -7.046875 Z M 5.4375 -2.8125 L 5.4375 -3.0625 L 4.15625 -6.265625 L 3 -6.265625 L 1.71875 -3.0625 L 1.71875 -2.8125 Z M 5.4375 -2.8125 "/></g></g></g><g fill="#393be5" fill-opacity="1"><g transform="translate(130.004905, 44.856787)"><g><path d="M 5.21875 -6.921875 C 5.238281 -6.953125 5.269531 -6.976562 5.3125 -7 C 5.363281 -7.03125 5.410156 -7.046875 5.453125 -7.046875 L 6.078125 -7.046875 C 6.171875 -7.046875 6.21875 -7 6.21875 -6.90625 L 6.21875 -0.140625 C 6.21875 -0.046875 6.171875 0 6.078125 0 L 5.578125 0 C 5.484375 0 5.4375 -0.046875 5.4375 -0.140625 L 5.4375 -6.0625 L 3.953125 -3.640625 C 3.929688 -3.609375 3.894531 -3.578125 3.84375 -3.546875 C 3.800781 -3.523438 3.765625 -3.515625 3.734375 -3.515625 L 3.421875 -3.515625 C 3.378906 -3.515625 3.335938 -3.523438 3.296875 -3.546875 C 3.253906 -3.578125 3.222656 -3.609375 3.203125 -3.640625 L 1.71875 -6.0625 L 1.71875 -0.140625 C 1.71875 -0.046875 1.671875 0 1.578125 0 L 1.09375 0 C 0.988281 0 0.9375 -0.046875 0.9375 -0.140625 L 0.9375 -6.90625 C 0.9375 -7 0.988281 -7.046875 1.09375 -7.046875 L 1.71875 -7.046875 C 1.75 -7.046875 1.785156 -7.03125 1.828125 -7 C 1.878906 -6.976562 1.914062 -6.953125 1.9375 -6.921875 L 3.578125 -4.453125 Z M 5.21875 -6.921875 "/></g></g></g></svg>